<svg width="114" height="141" fill="none" xmlns="http://www.w3.org/2000/svg"><path d="M1.052 81.526l24.026-8.908 10.393 4.454v2.402l-10.393-3.886-24.026 5.939z" fill="#fff"/><path d="M1.052 76.105l23.88-10.073 10.539 4.899v2.57l-10.472-4.325-23.947 6.929z" fill="#fff"/><path d="M1.052 70.683L24.78 59.446l10.69 5.344v2.74l-10.55-4.764-23.87 7.918z" fill="#fff"/><path d="M1.052 65.256l23.581-12.401 10.838 5.793v2.907l-10.624-5.202-23.795 8.903z" fill="#fff"/><path d="M1.052 59.834l23.43-13.565 10.989 6.237v3.071l-10.703-5.635-23.716 9.892z" fill="#fff"/><path d="M1.052 54.413l23.284-14.73 11.135 6.682v3.24L24.69 43.53 1.052 54.413zm31.23-16.754l23.352-18.492 11.203 7.693v3.51l-10.934-6.614-23.62 13.903z" fill="#fff"/><path d="M32.097 43.227l23.621-17.379 11.119 7.289v3.425L55.971 30.32 32.097 43.227z" fill="#fff"/><path d="M31.911 48.794L55.802 32.53l11.035 6.883v3.341l-10.799-5.871-24.127 11.911z" fill="#fff"/><path d="M31.726 54.362l24.16-15.151 10.95 6.479v3.256l-10.73-5.5-24.38 10.916z" fill="#fff"/><path d="M31.54 59.93l24.431-14.038 10.866 6.074v3.172L56.174 50.01 31.54 59.93z" fill="#fff"/><path d="M31.354 65.498l24.701-12.924 10.782 5.669v3.087L56.24 56.572l-24.887 8.926z" fill="#fff"/><path d="M31.17 71.066l24.97-11.81 10.697 5.263v3.003l-10.528-4.386-25.14 7.93zm-.187 5.567l25.241-10.697 10.613 4.86v2.919l-10.461-4.016-25.393 6.934z" fill="#fff"/><path d="M30.798 82.201l25.51-9.583 10.529 4.454v2.835l-10.394-3.645-25.645 5.94zm34.419-61.279L88.568 0l22.946 20.922L88.366 4.724 65.217 20.922z" fill="#fff"/><path d="M65.217 26.495L88.551 6.687l22.913 19.808-23.098-15.196-23.149 15.196z" fill="#fff"/><path d="M65.217 32.063l23.312-18.689 22.89 18.689-23.053-14.184-23.149 14.184z" fill="#fff"/><path d="M65.217 37.636l23.295-17.575 22.856 17.575-23.002-13.183-23.149 13.183z" fill="#fff"/><path d="M65.217 43.204l23.278-16.456 22.823 16.456-22.952-12.17-23.149 12.17z" fill="#fff"/><path d="M65.217 48.778l23.261-15.343 22.789 15.343-22.901-11.17-23.149 11.17z" fill="#fff"/><path d="M65.217 54.345l23.239-14.217 22.766 14.217-22.856-10.157-23.149 10.157z" fill="#fff"/><path d="M65.217 59.919l23.222-13.104 22.732 13.104-22.805-9.156-23.149 9.156z" fill="#fff"/><path d="M65.217 65.487l23.205-11.985 22.699 11.985-22.755-8.144-23.149 8.144z" fill="#fff"/><path d="M65.217 71.06l23.188-10.871L111.07 71.06l-22.704-7.143-23.149 7.143z" fill="#fff"/><path d="M65.217 76.628l23.166-9.752 22.642 9.752-22.66-6.13-23.148 6.13z" fill="#fff"/><path d="M65.217 82.201l23.149-8.638 22.608 8.638-22.608-5.129-23.149 5.13zm47.264 2.099H0v3.094h112.481V84.3zm0 47.635H0v3.093h112.481v-3.093zM17.863 129l-1.752-9.344H5.878L4.126 129h-2.97l7.591-38.62h4.495l7.59 38.62h-2.97zM6.386 116.99h9.217l-4.469-23.892h-.254L6.386 116.99zM24.845 129V90.406h4.621l9.852 35.141v-35.14h2.843L42.314 129h-4.52L27.69 93.783V129h-2.844zm31.611-19.246h8.684v8.81c0 .796-.034 1.617-.102 2.463a15.24 15.24 0 0 1-.406 2.463 9.317 9.317 0 0 1-.863 2.285 6.378 6.378 0 0 1-1.498 1.879c-.61.542-1.371.974-2.285 1.295-.897.305-1.98.457-3.25.457h-.026c-1.286 0-2.386-.161-3.3-.482-.915-.339-1.685-.787-2.311-1.346a6.473 6.473 0 0 1-1.498-1.955 11.013 11.013 0 0 1-.813-2.387 19.436 19.436 0 0 1-.38-2.666 50.332 50.332 0 0 1-.077-2.742v-16.224c0-.931.026-1.862.076-2.793.068-.931.204-1.829.407-2.692a11.92 11.92 0 0 1 .838-2.412 6.18 6.18 0 0 1 1.498-1.93c.626-.541 1.388-.973 2.285-1.295.914-.321 2.006-.482 3.275-.482h.026c1.286 0 2.386.17 3.3.508.931.321 1.701.753 2.31 1.295a6.279 6.279 0 0 1 1.499 1.904c.372.728.652 1.49.838 2.285.186.796.304 1.617.355 2.463.068.83.102 1.625.102 2.387v.736h-2.92v-.736c0-1.084-.06-2.116-.178-3.098-.101-.999-.347-1.862-.736-2.59a4.279 4.279 0 0 0-1.65-1.777c-.728-.44-1.702-.66-2.92-.66-1.236 0-2.218.228-2.946.685-.71.457-1.26 1.092-1.65 1.905-.373.795-.618 1.735-.736 2.818a37.94 37.94 0 0 0-.153 3.529v16.123c0 1.202.043 2.345.127 3.428.102 1.066.33 2.006.686 2.818a4.474 4.474 0 0 0 1.65 1.93c.728.474 1.735.711 3.022.711 1.168 0 2.107-.203 2.818-.609a4.324 4.324 0 0 0 1.676-1.727c.39-.728.651-1.583.787-2.564a24.04 24.04 0 0 0 .203-3.225v-6.068h-5.764v-2.717zM71.031 129V90.432h7.87c1.507 0 2.794.177 3.86.533 1.066.338 1.93.897 2.59 1.676.677.778 1.168 1.794 1.472 3.046.305 1.253.458 2.776.458 4.571v3.681c0 1.846-.44 3.471-1.32 4.875-.864 1.388-2.066 2.421-3.606 3.098a8.56 8.56 0 0 1 1.574 1.27c.457.44.838.948 1.142 1.523.322.576.585 1.227.788 1.955.203.728.355 1.557.457 2.488l.66 5.612c.085.795.237 1.557.457 2.285.22.711.474 1.363.762 1.955h-3.098a16.734 16.734 0 0 1-.635-1.854 17.53 17.53 0 0 1-.431-2.31l-.66-5.611c-.136-1.135-.39-2.108-.762-2.92-.356-.83-.787-1.507-1.295-2.032-.491-.524-1.016-.914-1.574-1.168-.56-.253-1.092-.38-1.6-.38h-4.215V129h-2.894zm13.33-28.768c0-1.608-.144-2.877-.432-3.808-.27-.931-.652-1.634-1.143-2.108a3.065 3.065 0 0 0-1.7-.914 10.75 10.75 0 0 0-2.159-.203h-5.002v16.758h4.9c.847 0 1.608-.152 2.286-.457a5.268 5.268 0 0 0 1.726-1.295 5.72 5.72 0 0 0 1.092-1.904c.27-.728.415-1.515.432-2.362v-3.707zM100.788 90c1.304 0 2.412.16 3.327.482.914.322 1.684.762 2.31 1.32a6.157 6.157 0 0 1 1.473 1.956c.372.745.651 1.549.838 2.412.203.863.33 1.76.38 2.691.051.914.077 1.82.077 2.717v16.199a34.64 34.64 0 0 1-.254 4.19c-.153 1.371-.517 2.615-1.092 3.732-.559 1.1-1.397 1.998-2.514 2.692-1.117.677-2.632 1.015-4.545 1.015h-.025c-1.287 0-2.395-.161-3.326-.482-.914-.322-1.684-.762-2.31-1.32a6.69 6.69 0 0 1-1.473-1.956 12.653 12.653 0 0 1-.838-2.412 17.132 17.132 0 0 1-.356-2.666 50.332 50.332 0 0 1-.076-2.742v-16.224c0-.931.025-1.862.076-2.793.068-.931.195-1.829.381-2.692.203-.863.49-1.667.863-2.412a6.361 6.361 0 0 1 1.473-1.93c.626-.558 1.396-.99 2.31-1.295.915-.321 2.006-.482 3.276-.482h.025zm.051 36.664c1.219 0 2.184-.228 2.895-.685a4.347 4.347 0 0 0 1.65-1.879c.372-.813.609-1.761.711-2.844.118-1.083.178-2.251.178-3.504v-16.148c0-1.185-.043-2.311-.127-3.377-.085-1.084-.313-2.032-.686-2.844a4.258 4.258 0 0 0-1.65-1.93c-.728-.474-1.735-.71-3.022-.71a.355.355 0 0 1-.152-.026c-1.202.017-2.158.262-2.87.736-.693.457-1.226 1.092-1.599 1.904-.372.796-.61 1.735-.71 2.819a36.822 36.822 0 0 0-.153 3.478v16.123c0 .796.017 1.566.05 2.311.035.745.11 1.447.23 2.107.118.66.295 1.27.532 1.828.237.542.55 1.008.94 1.397.406.389.906.694 1.498.914.61.22 1.346.33 2.209.33h.076z" fill="#fff"/></svg>