<svg width="45" height="85" fill="none" xmlns="http://www.w3.org/2000/svg"><path d="M6.227 42.453c2.368 2.356 4.576 4.535 6.768 6.734A76058.45 76058.45 0 0 1 44.067 80.35c1.167 1.17 1.24 2.776.195 3.853-1.086 1.118-2.682 1.058-3.894-.16L1.127 44.7c-1.505-1.51-1.505-2.877.014-4.4C14.178 27.224 27.217 14.147 40.25 1.066c.801-.806 1.67-1.305 2.846-.947 1.821.553 2.495 2.668 1.313 4.164-.214.27-.469.506-.712.75C31.532 17.234 19.368 29.436 7.2 41.633c-.266.264-.57.482-.974.82z" fill="#423C3A"/></svg>