<svg width="114" height="141" viewBox="0 0 114 141" fill="none" xmlns="http://www.w3.org/2000/svg">
<path d="M1.05176 81.5265L25.0778 72.618L35.471 77.0722V79.4737L25.0778 75.5875L1.05176 81.5265Z" fill="white"/>
<path d="M1.05176 76.1049L24.9315 66.0322L35.471 70.9308V73.501L24.999 69.176L1.05176 76.1049Z" fill="white"/>
<path d="M1.05176 70.6833L24.7797 59.4464L35.471 64.7893V67.5282L24.9203 62.7646L1.05176 70.6833Z" fill="white"/>
<path d="M1.05176 65.256L24.6335 52.855L35.471 58.6478V61.5554L24.8472 56.3532L1.05176 65.256Z" fill="white"/>
<path d="M1.05176 59.8345L24.4816 46.2693L35.471 52.5064V55.5771L24.7684 49.9418L1.05176 59.8345Z" fill="white"/>
<path d="M1.052 54.4128L24.3356 39.6834L35.4713 46.3648V49.6042L24.6899 43.5302L1.052 54.4128Z" fill="white"/>
<path d="M32.2823 37.6586L55.6335 19.1667L66.8366 26.8604V30.3698L55.9034 23.7559L32.2823 37.6586Z" fill="white"/>
<path d="M32.0972 43.2266L55.7182 25.8482L66.837 33.137V36.5621L55.9713 30.3193L32.0972 43.2266Z" fill="white"/>
<path d="M31.911 48.7943L55.802 32.5295L66.8365 39.4134V42.7541L56.0382 36.8826L31.911 48.7943Z" fill="white"/>
<path d="M31.7257 54.3622L55.8867 39.211L66.8367 45.6899V48.9462L56.106 43.4459L31.7257 54.3622Z" fill="white"/>
<path d="M31.5402 59.93L55.9711 45.8923L66.8368 51.9663V55.1383L56.1736 50.0092L31.5402 59.93Z" fill="white"/>
<path d="M31.3542 65.4978L56.0551 52.5737L66.8365 58.2428V61.3304L56.2407 56.5724L31.3542 65.4978Z" fill="white"/>
<path d="M31.1691 71.0656L56.1399 59.2551L66.8369 64.5192V67.5225L56.3086 63.1357L31.1691 71.0656Z" fill="white"/>
<path d="M30.9832 76.6335L56.224 65.9365L66.8366 70.7957V73.7146L56.3758 69.699L30.9832 76.6335Z" fill="white"/>
<path d="M30.7976 82.2014L56.3084 72.618L66.8366 77.0722V79.9068L56.4433 76.2624L30.7976 82.2014Z" fill="white"/>
<path d="M65.217 20.9215L88.5682 0L111.514 20.9215L88.3657 4.72421L65.217 20.9215Z" fill="white"/>
<path d="M65.217 26.495L88.5513 6.68707L111.464 26.495L88.3657 11.2988L65.217 26.495Z" fill="white"/>
<path d="M65.217 32.0629L88.5288 13.3741L111.419 32.0629L88.3657 17.879L65.217 32.0629Z" fill="white"/>
<path d="M65.217 37.6363L88.5119 20.0611L111.368 37.6363L88.3657 24.4535L65.217 37.6363Z" fill="white"/>
<path d="M65.217 43.2041L88.4951 26.7481L111.318 43.2041L88.3657 31.0336L65.217 43.2041Z" fill="white"/>
<path d="M65.217 48.7775L88.4782 33.435L111.267 48.7775L88.3657 37.6081L65.217 48.7775Z" fill="white"/>
<path d="M65.217 54.3454L88.4557 40.1277L111.222 54.3454L88.3657 44.1883L65.217 54.3454Z" fill="white"/>
<path d="M65.217 59.9188L88.4388 46.8147L111.171 59.9188L88.3657 50.7628L65.217 59.9188Z" fill="white"/>
<path d="M65.217 65.4866L88.4219 53.5017L111.121 65.4866L88.3657 57.343L65.217 65.4866Z" fill="white"/>
<path d="M65.217 71.06L88.4051 60.1887L111.07 71.06L88.3657 63.9174L65.217 71.06Z" fill="white"/>
<path d="M65.217 76.6279L88.3826 66.8757L111.025 76.6279L88.3657 70.4976L65.217 76.6279Z" fill="white"/>
<path d="M65.217 82.2014L88.3657 73.5628L110.974 82.2014L88.3657 77.0722L65.217 82.2014Z" fill="white"/>
<path d="M112.481 84.3004H0V87.3936H112.481V84.3004Z" fill="white"/>
<path d="M112.481 131.935H0V135.028H112.481V131.935Z" fill="white"/>
<path d="M17.8625 129L16.1106 119.656H5.87817L4.12622 129H1.15552L8.74731 90.3809H13.2415L20.8333 129H17.8625ZM6.38599 116.99H15.6028L11.134 93.0977H10.8801L6.38599 116.99ZM24.845 129V90.4062H29.4661L39.3176 125.547V90.4062H42.1614L42.3137 129H37.7942L27.6887 93.7832V129H24.845ZM56.4563 109.754H65.1399V118.564C65.1399 119.36 65.106 120.181 65.0383 121.027C64.9706 121.857 64.8352 122.678 64.6321 123.49C64.4459 124.286 64.1581 125.048 63.7688 125.775C63.3964 126.486 62.8971 127.113 62.2708 127.654C61.6614 128.196 60.8997 128.628 59.9856 128.949C59.0885 129.254 58.0051 129.406 56.7356 129.406H56.7102C55.4237 129.406 54.3235 129.245 53.4094 128.924C52.4954 128.585 51.7252 128.137 51.0989 127.578C50.4726 127.02 49.9732 126.368 49.6008 125.623C49.2454 124.878 48.9745 124.083 48.7883 123.236C48.6021 122.373 48.4752 121.484 48.4075 120.57C48.3567 119.639 48.3313 118.725 48.3313 117.828V101.604C48.3313 100.673 48.3567 99.7415 48.4075 98.8105C48.4752 97.8796 48.6106 96.9824 48.8137 96.1191C49.0168 95.2559 49.2961 94.4518 49.6516 93.707C50.024 92.9622 50.5234 92.319 51.1497 91.7773C51.776 91.2357 52.5377 90.804 53.4348 90.4824C54.3489 90.1608 55.4407 90 56.7102 90H56.7356C58.0221 90 59.1223 90.1693 60.0364 90.5078C60.9674 90.8294 61.7375 91.2611 62.3469 91.8027C62.9732 92.3444 63.4726 92.9792 63.845 93.707C64.2174 94.4349 64.4967 95.1966 64.6829 95.9922C64.8691 96.7878 64.9875 97.6087 65.0383 98.4551C65.106 99.2845 65.1399 100.08 65.1399 100.842V101.578H62.22V100.842C62.22 99.7585 62.1607 98.7259 62.0422 97.7441C61.9407 96.7454 61.6952 95.8822 61.3059 95.1543C60.9335 94.4095 60.3834 93.8171 59.6555 93.377C58.9277 92.9368 57.9543 92.7168 56.7356 92.7168C55.4999 92.7168 54.5181 92.9453 53.7903 93.4023C53.0793 93.8594 52.5292 94.4941 52.1399 95.3066C51.7675 96.1022 51.5221 97.0417 51.4036 98.125C51.302 99.2083 51.2512 100.385 51.2512 101.654V117.777C51.2512 118.979 51.2935 120.122 51.3782 121.205C51.4797 122.271 51.7083 123.211 52.0637 124.023C52.4361 124.836 52.9862 125.479 53.7141 125.953C54.442 126.427 55.4491 126.664 56.7356 126.664C57.9036 126.664 58.843 126.461 59.554 126.055C60.2818 125.632 60.8404 125.056 61.2297 124.328C61.6191 123.6 61.8814 122.745 62.0168 121.764C62.1523 120.765 62.22 119.69 62.22 118.539V112.471H56.4563V109.754ZM71.0305 129V90.4316H78.9016C80.4081 90.4316 81.6946 90.6094 82.761 90.9648C83.8274 91.3034 84.6907 91.862 85.3508 92.6406C86.0279 93.4193 86.5188 94.4349 86.8235 95.6875C87.1282 96.9401 87.2805 98.4635 87.2805 100.258V103.939C87.2805 105.785 86.8404 107.41 85.9602 108.814C85.0969 110.202 83.8951 111.235 82.3547 111.912C82.9641 112.301 83.4889 112.725 83.929 113.182C84.386 113.622 84.7668 114.13 85.0715 114.705C85.3931 115.281 85.6555 115.932 85.8586 116.66C86.0618 117.388 86.2141 118.217 86.3157 119.148L86.9758 124.76C87.0605 125.555 87.2128 126.317 87.4329 127.045C87.6529 127.756 87.9068 128.408 88.1946 129H85.0969C84.8769 128.475 84.6653 127.857 84.4622 127.146C84.276 126.436 84.1321 125.665 84.0305 124.836L83.3704 119.225C83.2349 118.09 82.981 117.117 82.6086 116.305C82.2532 115.475 81.8215 114.798 81.3137 114.273C80.8228 113.749 80.2981 113.359 79.7395 113.105C79.1809 112.852 78.6477 112.725 78.1399 112.725H73.925V129H71.0305ZM84.3606 100.232C84.3606 98.6243 84.2167 97.3548 83.929 96.4238C83.6581 95.4928 83.2773 94.7904 82.7864 94.3164C82.3124 93.8255 81.7454 93.5208 81.0852 93.4023C80.425 93.2669 79.7056 93.1992 78.927 93.1992H73.925V109.957H78.8254C79.6718 109.957 80.4335 109.805 81.1106 109.5C81.7877 109.178 82.3632 108.747 82.8372 108.205C83.3111 107.663 83.675 107.029 83.929 106.301C84.1998 105.573 84.3437 104.786 84.3606 103.939V100.232ZM100.788 90C102.092 90 103.2 90.1608 104.115 90.4824C105.029 90.804 105.799 91.2441 106.425 91.8027C107.051 92.3613 107.542 93.013 107.898 93.7578C108.27 94.5026 108.549 95.3066 108.736 96.1699C108.939 97.0332 109.066 97.9303 109.116 98.8613C109.167 99.7754 109.193 100.681 109.193 101.578V117.777C109.193 119.182 109.108 120.579 108.939 121.967C108.786 123.338 108.422 124.582 107.847 125.699C107.288 126.799 106.45 127.697 105.333 128.391C104.216 129.068 102.701 129.406 100.788 129.406H100.763C99.4765 129.406 98.3678 129.245 97.4368 128.924C96.5227 128.602 95.7525 128.162 95.1262 127.604C94.5168 127.045 94.026 126.393 93.6536 125.648C93.2981 124.887 93.0188 124.083 92.8157 123.236C92.6295 122.373 92.511 121.484 92.4602 120.57C92.4094 119.639 92.384 118.725 92.384 117.828V101.604C92.384 100.673 92.4094 99.7415 92.4602 98.8105C92.5279 97.8796 92.6549 96.9824 92.8411 96.1191C93.0442 95.2559 93.3319 94.4518 93.7043 93.707C94.0767 92.9622 94.5676 92.319 95.177 91.7773C95.8033 91.2188 96.5735 90.7871 97.4875 90.4824C98.4016 90.1608 99.4934 90 100.763 90H100.788ZM100.839 126.664C102.058 126.664 103.023 126.436 103.734 125.979C104.462 125.521 105.012 124.895 105.384 124.1C105.756 123.287 105.993 122.339 106.095 121.256C106.213 120.173 106.273 119.005 106.273 117.752V101.604C106.273 100.419 106.23 99.293 106.146 98.2266C106.061 97.1432 105.833 96.1953 105.46 95.3828C105.105 94.5703 104.555 93.9271 103.81 93.4531C103.082 92.9792 102.075 92.7422 100.788 92.7422C100.721 92.7422 100.67 92.7337 100.636 92.7168C99.4342 92.7337 98.4778 92.9792 97.7668 93.4531C97.0728 93.9102 96.5396 94.5449 96.1672 95.3574C95.7948 96.153 95.5579 97.0924 95.4563 98.1758C95.3547 99.2422 95.304 100.402 95.304 101.654V117.777C95.304 118.573 95.3209 119.343 95.3547 120.088C95.3886 120.833 95.4648 121.535 95.5833 122.195C95.7017 122.855 95.8795 123.465 96.1165 124.023C96.3534 124.565 96.6666 125.031 97.0559 125.42C97.4622 125.809 97.9615 126.114 98.554 126.334C99.1633 126.554 99.8997 126.664 100.763 126.664H100.839Z" fill="white"/>
</svg>
