<svg class="hidden">
        <symbol viewBox="0 0 61 48" xmlns="http://www.w3.org/2000/svg" id="apartament">
        <path d="M.123 0c2.32.348 4.505.669 6.684 1.007 7.664 1.182 15.313 2.5 23.004 3.478 2.125.269 4.389-.41 6.573-.743A3841.975 3841.975 0 0 0 59.497.15C60.612-.027 61.005.234 61 1.456c-.047 9.747-.04 19.494-.005 29.241.003.926-.328 1.383-1.116 1.792a8837.18 8837.18 0 0 0-28.394 14.805c-.654.343-1.183.454-1.923.067A6549.364 6549.364 0 0 0 .94 32.455c-.594-.309-.942-.622-.94-1.385C.027 21.034.017 11 .022.965c0-.24.05-.479.101-.965zm30.85 25.993l28.988 5.045V1.022L30.974 5.576v20.417zm27.675 5.97c-.311-.11-.447-.182-.59-.207-7.879-1.394-15.752-2.82-23.643-4.151-1.792-.301-3.688-.595-5.455-.336-5.845.857-11.65 1.967-17.473 2.984-3.011.526-6.022 1.061-9.28 1.634.395.277.565.43.762.533 8.918 4.643 17.833 9.29 26.773 13.892.405.21 1.118.175 1.535-.04 8.827-4.554 17.631-9.147 26.438-13.738.274-.14.525-.319.933-.57zM.992 1.01v30.045l11.152-1.967V9.87c0-.666-.114-1.372.97-1.25 2.776.305 5.553.624 8.337.823 1.054.077 1.286.506 1.282 1.46-.035 5.017-.015 10.033-.015 15.05v1.358l7.15-1.308V5.556C20.245 4.038 10.653 2.527.992 1.01zm16.3 27.23V9.951l-4.129-.437v19.423c1.41-.24 2.737-.464 4.13-.699zm4.419-.8V10.373l-3.831-.358v18.07c1.318-.22 2.555-.43 3.83-.647z"
            ></path>
        <path d="M56.039 14.881c0 1.15-.015 2.298.005 3.448.014.898-.3 1.395-1.299 1.318-2.574-.197-5.153-.358-7.728-.538-.753-.052-1.066-.476-1.059-1.222.018-1.888.018-3.776 0-5.664-.007-.746.302-1.146 1.062-1.217 2.448-.232 4.894-.494 7.343-.713 1.476-.131 1.666.059 1.678 1.51.005 1.024-.002 2.051-.002 3.078zm-5.095.017h4.164V11.04c-1.451.149-2.784.287-4.164.427v3.431zm4.191 3.945v-3.547H50.89c0 .915-.044 1.732.025 2.54.024.273.313.725.523.75 1.202.14 2.416.178 3.697.257zm-8.26-3.955h3.716v-3.342c-3.872-.02-4.082.158-3.825 3.16.002.034.039.066.108.182zm3.748.35h-3.838v3.022l3.838.244V15.24z"
            ></path>
        </symbol>
        <symbol viewBox="0 0 45 85"  xmlns="http://www.w3.org/2000/svg" id="arrow">
        <path d="M6.227 42.453c2.368 2.356 4.576 4.535 6.768 6.734A76058.45 76058.45 0 0 1 44.067 80.35c1.167 1.17 1.24 2.776.195 3.853-1.086 1.118-2.682 1.058-3.894-.16L1.127 44.7c-1.505-1.51-1.505-2.877.014-4.4C14.178 27.224 27.217 14.147 40.25 1.066c.801-.806 1.67-1.305 2.846-.947 1.821.553 2.495 2.668 1.313 4.164-.214.27-.469.506-.712.75C31.532 17.234 19.368 29.436 7.2 41.633c-.266.264-.57.482-.974.82z"
            ></path>
        </symbol>
        <symbol viewBox="0 0 93 81"  xmlns="http://www.w3.org/2000/svg" id="briefcase">
        <path d="M88.77 44.815c-1.269 0-2.115.846-2.115 2.114v27.477c0 1.268-.846 2.114-2.114 2.114H8.451c-1.268 0-2.114-.846-2.114-2.114V46.93c0-1.268-.846-2.114-2.114-2.114-1.268 0-2.114.846-2.114 2.114v27.477c0 3.593 2.748 6.34 6.34 6.34h76.09c3.594 0 6.341-2.746 6.341-6.34V46.93c.003-1.27-.843-2.114-2.11-2.114z"
            fill="#FFF3A6"></path>
        <path d="M86.657 15.223H6.339c-3.593 0-6.34 2.747-6.34 6.34v13.528c0 2.96 2.113 5.496 4.86 6.13l33.185 7.396v6.764c0 1.268.846 2.114 2.114 2.114H52.84c1.268 0 2.114-.846 2.114-2.114v-6.764L88.14 41.22c2.746-.635 4.86-3.17 4.86-6.129V21.563c-.003-3.591-2.749-6.34-6.343-6.34zM50.725 53.269H42.27v-8.454h8.454v8.454zM88.769 35.09c0 1.057-.635 1.903-1.69 2.114L54.951 44.39V42.7c0-1.268-.846-2.114-2.114-2.114H40.155c-1.268 0-2.114.846-2.114 2.114v1.69L5.914 37.205c-1.057-.211-1.69-1.057-1.69-2.114V21.563c0-1.268.845-2.114 2.113-2.114h80.318c1.268 0 2.114.846 2.114 2.114v13.528zM31.701 10.997c1.268 0 2.114-.846 2.114-2.114V6.769c0-1.268.846-2.114 2.114-2.114h21.136c1.268 0 2.114.846 2.114 2.114v2.114c0 1.268.846 2.114 2.114 2.114 1.268 0 2.114-.846 2.114-2.114V6.769c0-3.593-2.747-6.34-6.34-6.34H35.93c-3.593 0-6.34 2.747-6.34 6.34v2.114c-.004 1.268.842 2.114 2.11 2.114z"
            fill="#FFF3A6"></path>
        </symbol>
        <symbol viewBox="0 0 88 84"    xmlns="http://www.w3.org/2000/svg" id="castle">
        <path d="M73.642 56.437h6.912m-59.75-9.881c0-1.54-.17-3.08.042-4.535.467-3.037 2.036-5.518 4.368-7.528 5.428-4.62 10.856-9.24 16.326-13.774.806-.684 2.545-2.096 2.587-2.053.297.171 1.824 1.583 2.205 1.925 5.259 4.449 10.475 8.94 15.818 13.346 3.562 2.951 5.428 6.544 5.131 11.25 0 .342 0 .684.042 1.026 0 .086.085.214.255.556 1.993 0 4.113-.042 6.234 0 2.078.043 4.156 0 6.233.214 3.817.428 6.87 3.893 6.913 7.743.084 8.811 0 17.623.042 26.435C87 82.957 85.897 83 84.583 83H3.417C1.17 83 1 82.829 1 80.647V55.795c0-5.475 3.393-8.94 8.82-9.026 3.223-.042 6.489 0 9.712 0 .296-.042.636-.128 1.272-.213zM50.997 83c0-4.962.042-9.71-.042-14.458-.255-2.395-2.46-4.278-7.38-4.064-4.282 0-6.53 1.968-6.572 4.92-.085 4.32-.042 8.597 0 12.918 0 .213.085.427.17.684h13.824zm-29.896-8.213l-.297-28.231.297 28.231zm46.18-.556v-28.06 28.06zM44.085 18.666V1v17.666zm14.63-6.031h-14.63V1h14.63a1.19 1.19 0 0 1 1.187 1.198v9.196c0 .685-.508 1.24-1.187 1.24zM30.812 43.519h6.912-6.912zm-.255 7.314h6.912-6.912zM7.277 69.44h6.911-6.912zm0-13.003h6.911-6.912zm42.66-12.62h6.912-6.912zm.17 7.016h6.912-6.913zM73.641 69.44h6.912-6.912z"
            stroke="#FFF3A6" stroke-width="1.5" stroke-miterlimit="10"></path>
        </symbol>
        <symbol viewBox="0 0 93 92"    xmlns="http://www.w3.org/2000/svg" id="chalice">
        <path d="M92.4 17.708c-.09-7.793-4.08-12.084-11.229-12.084-2.768 0-5.434.643-7.177 1.18.174-3.185.176-5.151.176-5.249V.191H18.82v1.364c0 .047.004 2.045.18 5.251-1.743-.537-4.412-1.184-7.183-1.184-7.15 0-11.138 4.291-11.23 12.084-.09 7.666 1.658 14.49 5.197 20.285A32.795 32.795 0 0 0 16.81 48.978c4.986 3.001 9.969 3.63 13.27 3.63.816 0 1.6-.038 2.333-.114.049-.004.093-.01.142-.016 1.597 1.72 3.318 3.097 5.158 4.12a5.365 5.365 0 0 1 2.621 3.583 4.5 4.5 0 0 0-3.159 4.29 4.499 4.499 0 0 0 3.283 4.325v5.723H33.08v5.973H25.8v11.507h41.386V80.492h-7.28v-5.973h-7.378v-5.723a4.5 4.5 0 0 0 3.283-4.326 4.5 4.5 0 0 0-3.16-4.29 5.373 5.373 0 0 1 2.623-3.582c1.834-1.021 3.567-2.406 5.16-4.12.564.062 1.411.128 2.468.128 3.303 0 8.285-.63 13.271-3.63A32.823 32.823 0 0 0 87.201 37.99c3.542-5.791 5.29-12.615 5.2-20.281zm-19.123-2.27c1.848-.616 4.242-1.236 6.387-1.236 1.798 0 3.094.44 3.849 1.306.867.997 1.148 2.67.83 4.974-1.318 9.6-5.48 17.09-11.719 21.097-2.173 1.395-4.514 1.972-6.476 2.178 4.15-8.72 6.157-19.663 7.129-28.32zM71.42 2.917a100.63 100.63 0 0 1-.062 1.86H21.637c-.032-.734-.052-1.361-.065-1.86H71.42zM21.118 24.935c1.342 7.194 3.193 13.372 5.505 18.361.072.155.145.307.217.46-1.96-.205-4.3-.782-6.473-2.175-6.24-4.007-10.401-11.5-11.72-21.098-.315-2.304-.036-3.978.832-4.973.755-.867 2.05-1.307 3.848-1.307 2.146 0 4.544.622 6.392 1.236.33 2.952.782 6.184 1.4 9.496zm9.305 24.945c-.11.001-.223.003-.338.003-2.957 0-7.417-.563-11.866-3.24-4.55-2.739-15.112-11.038-14.902-28.904.074-6.318 2.855-9.39 8.503-9.39 3.02 0 6.003.91 7.366 1.39.068.915.145 1.832.229 2.746-1.853-.545-4.037-1.01-6.086-1.01-2.622 0-4.61.755-5.905 2.241-1.41 1.617-1.907 4.018-1.478 7.138.734 5.343 2.269 10.067 4.56 14.04 2.188 3.79 5.01 6.814 8.388 8.982 3.3 2.119 6.867 2.653 9.412 2.705l.026.044c.14.245.281.484.423.722l.134.221c.136.223.273.445.41.66.052.081.105.16.157.242a31.982 31.982 0 0 0 .562.837c.092.131.183.263.275.391l.13.182zm34.04 33.34v6.052H28.53V83.22h35.932zm-7.281-5.972v3.245H35.81v-3.245h21.372zM43.189 74.52v-5.556h6.615v5.556h-6.615zm8.134-8.282H41.67a1.767 1.767 0 0 1 0-3.531h9.652a1.767 1.767 0 0 1 0 3.531zm2.629-12.021c-2.161 1.202-3.63 3.337-4.035 5.763h-6.84c-.405-2.427-1.874-4.561-4.035-5.763-1.691-.942-3.22-2.2-4.601-3.704l-.334-.38c-1.355-1.546-2.633-3.42-3.798-5.567l-.357-.659c-5.864-11.33-7.638-27.705-8.172-36.403h49.442c-.022.378-.047.77-.075 1.175l-.005.058c-.03.44-.062.881-.097 1.323l-.003.038c-.11 1.4-.238 2.803-.386 4.19l-.088.838c-.99 8.882-3.084 20.197-7.496 28.72l-.39.72a32.57 32.57 0 0 1-2.821 4.378c-.134.174-.269.342-.406.51l-.1.122c-.15.181-.3.358-.452.533l-.022.025c-1.516 1.734-3.177 3.107-4.93 4.083zm20.82-7.575c-4.45 2.678-8.907 3.24-11.864 3.24-.117 0-.229 0-.338-.002a27.874 27.874 0 0 0 .59-.844c.145-.215.288-.432.43-.65.037-.056.072-.112.11-.168.156-.245.31-.493.463-.744l.07-.12c.124-.208.247-.418.37-.629l.085-.146c2.545-.052 6.113-.586 9.412-2.704 3.378-2.169 6.2-5.19 8.388-8.983 2.293-3.97 3.826-8.695 4.56-14.04.428-3.12-.07-5.52-1.478-7.137-1.296-1.487-3.283-2.241-5.904-2.241-2.05 0-4.233.465-6.087 1.01.086-.932.16-1.826.223-2.675l.006-.071c1.364-.481 4.346-1.39 7.366-1.39 5.648 0 8.43 3.071 8.503 9.39.207 17.867-10.354 26.166-14.905 28.904z"
            fill="#FFF3A6"></path>
        </symbol>

        <symbol viewBox="0 0 48 35"  xmlns="http://www.w3.org/2000/svg" id="email">
            <path d="M1 1l23 16.429L47 1M1 33.857h46V1H1v32.857z"   stroke-linecap="round" stroke-linejoin="round"></path>
        </symbol>
<!--SOCIAL ICONS-->
        <symbol viewBox="0 0 19 36"    xmlns="http://www.w3.org/2000/svg" id="facebook icon">
        <path d="M11.914 35.354v-16.1h5.432l.807-6.304h-6.239V8.935c0-1.82.507-3.065 3.118-3.065h3.308V.25A43.878 43.878 0 0 0 13.494 0C8.693 0 5.396 2.931 5.396 8.312v4.626H0v6.304h5.408v16.112h6.506z" ></path>
        </symbol>
        <symbol viewBox="0 0 39 39"    xmlns="http://www.w3.org/2000/svg" id="insta icon">
        <path d="M19.35 9.228a9.76 9.76 0 1 0 0 19.52 9.76 9.76 0 0 0 0-19.52zm0 16.099a6.34 6.34 0 1 1 0-12.682 6.34 6.34 0 0 1 0 12.682zm10.146-14.182a2.275 2.275 0 1 0 0-4.55 2.275 2.275 0 0 0 0 4.55z" ></path>
        <path d="M37.363 6.556A9.72 9.72 0 0 0 31.806 1a13.943 13.943 0 0 0-4.614-.886C25.159.025 24.515 0 19.36 0c-5.155 0-5.815 0-7.83.114-1.577.03-3.136.33-4.61.886a9.71 9.71 0 0 0-5.558 5.556 13.9 13.9 0 0 0-.885 4.614C.388 13.2.36 13.844.36 19c0 5.155 0 5.812.118 7.832.032 1.578.33 3.136.885 4.616a9.73 9.73 0 0 0 5.56 5.555c1.471.577 3.031.898 4.611.95 2.033.089 2.677.116 7.831.116 5.155 0 5.815 0 7.83-.116a13.964 13.964 0 0 0 4.615-.884 9.737 9.737 0 0 0 5.558-5.558 13.9 13.9 0 0 0 .884-4.614c.09-2.03.118-2.674.118-7.83 0-5.157 0-5.812-.118-7.832a13.892 13.892 0 0 0-.889-4.68zm-2.57 20.12a10.644 10.644 0 0 1-.657 3.562 6.305 6.305 0 0 1-3.614 3.612 10.52 10.52 0 0 1-3.524.656c-2.006.093-2.571.116-7.713.116-5.146 0-5.672 0-7.715-.116a10.47 10.47 0 0 1-3.523-.656 6.3 6.3 0 0 1-3.628-3.612 10.722 10.722 0 0 1-.656-3.523c-.091-2.005-.112-2.57-.112-7.712 0-5.144 0-5.67.112-7.715.013-1.216.235-2.42.656-3.56a6.303 6.303 0 0 1 3.628-3.614c1.129-.418 2.32-.64 3.523-.657 2.008-.09 2.571-.116 7.715-.116s5.671 0 7.712.116a10.47 10.47 0 0 1 3.525.657 6.313 6.313 0 0 1 3.614 3.613c.415 1.13.637 2.32.656 3.523.091 2.008.114 2.571.114 7.715 0 5.142 0 5.695-.09 7.712h-.024v-.002z"
            ></path>
        </symbol>
        <symbol viewBox="0 0 41 34"  xmlns="http://www.w3.org/2000/svg" id="telegram">
        <path d="M37.659.22L2.209 13.89c-2.42.973-2.406 2.322-.444 2.924l9.101 2.84L31.924 6.366c.996-.606 1.906-.28 1.158.384L16.021 22.148h-.004l.004.003-.628 9.38c.92 0 1.326-.421 1.841-.919l4.421-4.299 9.196 6.792c1.695.934 2.913.454 3.335-1.57l6.036-28.447C40.84.61 39.276-.512 37.66.22z"
            ></path>
        </symbol>
<!--SOCIAL ICONS-->
        <symbol viewBox="0 0 114 141" xmlns="http://www.w3.org/2000/svg" id="logo">
        <path d="M1.052 81.526l24.026-8.908 10.393 4.454v2.402l-10.393-3.886-24.026 5.939z" ></path>
        <path d="M1.052 76.105l23.88-10.073 10.539 4.899v2.57l-10.472-4.325-23.947 6.929z" ></path>
        <path d="M1.052 70.683L24.78 59.446l10.69 5.344v2.74l-10.55-4.764-23.87 7.918z" ></path>
        <path d="M1.052 65.256l23.581-12.401 10.838 5.793v2.907l-10.624-5.202-23.795 8.903z" ></path>
        <path d="M1.052 59.834l23.43-13.565 10.989 6.237v3.071l-10.703-5.635-23.716 9.892z" ></path>
        <path d="M1.052 54.413l23.284-14.73 11.135 6.682v3.24L24.69 43.53 1.052 54.413zm31.23-16.754l23.352-18.492 11.203 7.693v3.51l-10.934-6.614-23.62 13.903z" ></path>
        <path d="M32.097 43.227l23.621-17.379 11.119 7.289v3.425L55.971 30.32 32.097 43.227z" ></path>
        <path d="M31.911 48.794L55.802 32.53l11.035 6.883v3.341l-10.799-5.871-24.127 11.911z" ></path>
        <path d="M31.726 54.362l24.16-15.151 10.95 6.479v3.256l-10.73-5.5-24.38 10.916z" ></path>
        <path d="M31.54 59.93l24.431-14.038 10.866 6.074v3.172L56.174 50.01 31.54 59.93z" ></path>
        <path d="M31.354 65.498l24.701-12.924 10.782 5.669v3.087L56.24 56.572l-24.887 8.926z" ></path>
        <path d="M31.17 71.066l24.97-11.81 10.697 5.263v3.003l-10.528-4.386-25.14 7.93zm-.187 5.567l25.241-10.697 10.613 4.86v2.919l-10.461-4.016-25.393 6.934z" ></path>
        <path d="M30.798 82.201l25.51-9.583 10.529 4.454v2.835l-10.394-3.645-25.645 5.94zm34.419-61.279L88.568 0l22.946 20.922L88.366 4.724 65.217 20.922z" ></path>
        <path d="M65.217 26.495L88.551 6.687l22.913 19.808-23.098-15.196-23.149 15.196z"></path>
        <path d="M65.217 32.063l23.312-18.689 22.89 18.689-23.053-14.184-23.149 14.184z" ></path>
        <path d="M65.217 37.636l23.295-17.575 22.856 17.575-23.002-13.183-23.149 13.183z" ></path>
        <path d="M65.217 43.204l23.278-16.456 22.823 16.456-22.952-12.17-23.149 12.17z" ></path>
        <path d="M65.217 48.778l23.261-15.343 22.789 15.343-22.901-11.17-23.149 11.17z" ></path>
        <path d="M65.217 54.345l23.239-14.217 22.766 14.217-22.856-10.157-23.149 10.157z" ></path>
        <path d="M65.217 59.919l23.222-13.104 22.732 13.104-22.805-9.156-23.149 9.156z" ></path>
        <path d="M65.217 65.487l23.205-11.985 22.699 11.985-22.755-8.144-23.149 8.144z" ></path>
        <path d="M65.217 71.06l23.188-10.871L111.07 71.06l-22.704-7.143-23.149 7.143z" ></path>
        <path d="M65.217 76.628l23.166-9.752 22.642 9.752-22.66-6.13-23.148 6.13z" ></path>
        <path d="M65.217 82.201l23.149-8.638 22.608 8.638-22.608-5.129-23.149 5.13zm47.264 2.099H0v3.094h112.481V84.3zm0 47.635H0v3.093h112.481v-3.093zM17.863 129l-1.752-9.344H5.878L4.126 129h-2.97l7.591-38.62h4.495l7.59 38.62h-2.97zM6.386 116.99h9.217l-4.469-23.892h-.254L6.386 116.99zM24.845 129V90.406h4.621l9.852 35.141v-35.14h2.843L42.314 129h-4.52L27.69 93.783V129h-2.844zm31.611-19.246h8.684v8.81c0 .796-.034 1.617-.102 2.463a15.24 15.24 0 0 1-.406 2.463 9.317 9.317 0 0 1-.863 2.285 6.378 6.378 0 0 1-1.498 1.879c-.61.542-1.371.974-2.285 1.295-.897.305-1.98.457-3.25.457h-.026c-1.286 0-2.386-.161-3.3-.482-.915-.339-1.685-.787-2.311-1.346a6.473 6.473 0 0 1-1.498-1.955 11.013 11.013 0 0 1-.813-2.387 19.436 19.436 0 0 1-.38-2.666 50.332 50.332 0 0 1-.077-2.742v-16.224c0-.931.026-1.862.076-2.793.068-.931.204-1.829.407-2.692a11.92 11.92 0 0 1 .838-2.412 6.18 6.18 0 0 1 1.498-1.93c.626-.541 1.388-.973 2.285-1.295.914-.321 2.006-.482 3.275-.482h.026c1.286 0 2.386.17 3.3.508.931.321 1.701.753 2.31 1.295a6.279 6.279 0 0 1 1.499 1.904c.372.728.652 1.49.838 2.285.186.796.304 1.617.355 2.463.068.83.102 1.625.102 2.387v.736h-2.92v-.736c0-1.084-.06-2.116-.178-3.098-.101-.999-.347-1.862-.736-2.59a4.279 4.279 0 0 0-1.65-1.777c-.728-.44-1.702-.66-2.92-.66-1.236 0-2.218.228-2.946.685-.71.457-1.26 1.092-1.65 1.905-.373.795-.618 1.735-.736 2.818a37.94 37.94 0 0 0-.153 3.529v16.123c0 1.202.043 2.345.127 3.428.102 1.066.33 2.006.686 2.818a4.474 4.474 0 0 0 1.65 1.93c.728.474 1.735.711 3.022.711 1.168 0 2.107-.203 2.818-.609a4.324 4.324 0 0 0 1.676-1.727c.39-.728.651-1.583.787-2.564a24.04 24.04 0 0 0 .203-3.225v-6.068h-5.764v-2.717zM71.031 129V90.432h7.87c1.507 0 2.794.177 3.86.533 1.066.338 1.93.897 2.59 1.676.677.778 1.168 1.794 1.472 3.046.305 1.253.458 2.776.458 4.571v3.681c0 1.846-.44 3.471-1.32 4.875-.864 1.388-2.066 2.421-3.606 3.098a8.56 8.56 0 0 1 1.574 1.27c.457.44.838.948 1.142 1.523.322.576.585 1.227.788 1.955.203.728.355 1.557.457 2.488l.66 5.612c.085.795.237 1.557.457 2.285.22.711.474 1.363.762 1.955h-3.098a16.734 16.734 0 0 1-.635-1.854 17.53 17.53 0 0 1-.431-2.31l-.66-5.611c-.136-1.135-.39-2.108-.762-2.92-.356-.83-.787-1.507-1.295-2.032-.491-.524-1.016-.914-1.574-1.168-.56-.253-1.092-.38-1.6-.38h-4.215V129h-2.894zm13.33-28.768c0-1.608-.144-2.877-.432-3.808-.27-.931-.652-1.634-1.143-2.108a3.065 3.065 0 0 0-1.7-.914 10.75 10.75 0 0 0-2.159-.203h-5.002v16.758h4.9c.847 0 1.608-.152 2.286-.457a5.268 5.268 0 0 0 1.726-1.295 5.72 5.72 0 0 0 1.092-1.904c.27-.728.415-1.515.432-2.362v-3.707zM100.788 90c1.304 0 2.412.16 3.327.482.914.322 1.684.762 2.31 1.32a6.157 6.157 0 0 1 1.473 1.956c.372.745.651 1.549.838 2.412.203.863.33 1.76.38 2.691.051.914.077 1.82.077 2.717v16.199a34.64 34.64 0 0 1-.254 4.19c-.153 1.371-.517 2.615-1.092 3.732-.559 1.1-1.397 1.998-2.514 2.692-1.117.677-2.632 1.015-4.545 1.015h-.025c-1.287 0-2.395-.161-3.326-.482-.914-.322-1.684-.762-2.31-1.32a6.69 6.69 0 0 1-1.473-1.956 12.653 12.653 0 0 1-.838-2.412 17.132 17.132 0 0 1-.356-2.666 50.332 50.332 0 0 1-.076-2.742v-16.224c0-.931.025-1.862.076-2.793.068-.931.195-1.829.381-2.692.203-.863.49-1.667.863-2.412a6.361 6.361 0 0 1 1.473-1.93c.626-.558 1.396-.99 2.31-1.295.915-.321 2.006-.482 3.276-.482h.025zm.051 36.664c1.219 0 2.184-.228 2.895-.685a4.347 4.347 0 0 0 1.65-1.879c.372-.813.609-1.761.711-2.844.118-1.083.178-2.251.178-3.504v-16.148c0-1.185-.043-2.311-.127-3.377-.085-1.084-.313-2.032-.686-2.844a4.258 4.258 0 0 0-1.65-1.93c-.728-.474-1.735-.71-3.022-.71a.355.355 0 0 1-.152-.026c-1.202.017-2.158.262-2.87.736-.693.457-1.226 1.092-1.599 1.904-.372.796-.61 1.735-.71 2.819a36.822 36.822 0 0 0-.153 3.478v16.123c0 .796.017 1.566.05 2.311.035.745.11 1.447.23 2.107.118.66.295 1.27.532 1.828.237.542.55 1.008.94 1.397.406.389.906.694 1.498.914.61.22 1.346.33 2.209.33h.076z"
            ></path>
        </symbol>
        <symbol viewBox="0 0 109 87"  xmlns="http://www.w3.org/2000/svg" id="park">
            <path d="M95.306 40.148s7.177-5.184 4.158-19.483c-3.076-14.24-14.242-17.26-14.242-17.26s-8.715-4.387-19.938-1.31C54.12 5.17 49.504 15.651 49.504 15.651s-3.418 7.064-1.424 14.64c1.196 4.444.456 2.621.456 2.621M42.27 56.84S32.185 33.824 56.852 31.545"
                stroke="#FFF3A6" stroke-width="1.5" stroke-miterlimit="10"></path>
            <path d="M84.88 67.094s17.034 2.221 21.933-13.502c4.899-15.78-6.95-22.046-6.95-22.046M52.58 63.96s4.785 1.823 9.628 2.222m2.905-12.59s.912 24.268-3.076 32.528m17.945-32.528s-.456 22.274 2.734 32.528M0 85.835h92.4m3.361 0h5.241M8.887 60.087h40.447M8.887 64.131h40.447M8.887 68.233h39.649m-42.27 6.722H52.41v5.526H6.266v-5.526z"
                stroke="#FFF3A6" stroke-width="1.5" stroke-miterlimit="10"></path>
            <path d="M11.792 85.836l.17-5.355h35.605v5.355M15.381 68.233v6.21m25.977-6.21v6.21" stroke="#FFF3A6" stroke-width="1.5" stroke-miterlimit="10"></path>
        </symbol>
        <symbol viewBox="0 0 53 54"  xmlns="http://www.w3.org/2000/svg" id="phone">
        <path d="M13.323 21.62c.226 6.195 12.237 18.285 18.932 19.122.74-1.91 1.362-3.89 2.255-5.737 1.514-3.13 4.106-4.36 7.154-2.752 3.475 1.834 6.729 4.187 9.782 6.68 2.072 1.692 1.785 4.152.642 6.48-3.792 7.708-13.211 10.913-20.8 6.688-12.45-6.934-22.228-16.723-29.26-29.105C-2.31 15.36.673 5.865 8.23 2.026c3.287-1.67 5.423-1.439 7.705 1.361 1.989 2.44 3.87 5.034 5.354 7.799 2.173 4.052 1.022 6.845-3.208 8.69-1.558.678-3.19 1.175-4.758 1.743zM.903 16.57c.391 1.235.736 3.652 1.847 5.64 6.928 12.37 16.647 22.075 28.985 29.024 6.83 3.847 15.11 1.288 19.057-5.489 1.803-3.096 1.605-4.833-1.058-7.156a41.273 41.273 0 0 0-4.773-3.576c-6.29-4.05-9.28-2.95-11.027 4.303-.593 2.458-1.788 3.112-3.776 2.13-7.885-3.882-13.832-9.786-17.662-17.714-.885-1.834-.482-3.28 1.95-3.647 1.225-.185 2.422-.73 3.569-1.253 3.282-1.499 4.268-3.642 2.564-6.756-1.634-2.988-3.726-5.745-5.805-8.46-1.466-1.918-3.518-2.055-5.62-.965C3.962 5.342 1.246 9.628.904 16.57z"
            ></path>
        </symbol>
        <symbol viewBox="0 0 76 79"  xmlns="http://www.w3.org/2000/svg" id="puzzle">
        <path d="M71.385 78.576H43.758l-.52-7.238c0-1.088.047-1.797.71-2.081.33-.142.757-.095 1.371 0a9.566 9.566 0 0 0 1.94.189c3.595 0 6.245-3.643 6.245-6.907 0-3.122-2.791-6.954-6.245-6.954-.851 0-1.466.095-1.94.19-.614.094-.993.141-1.371 0-.663-.285-.71-.947-.71-2.035l.52-7.285h9.367c1.608 0 2.034-.047 2.318-.284.095-.094.095-.189-.19-.946-.236-.615-.567-1.514-.567-2.65 0-2.79 2.27-5.108 5.11-5.108 2.79 0 5.108 2.27 5.108 5.109 0 1.135-.33 2.034-.567 2.649-.284.757-.284.852-.19.946.284.237.71.284 2.366.284h9.414v27.58c0 .189.142 2.46-.994 3.642-.851.71-2.412.9-3.548.9zm-26.539-1.183h26.539c1.278 0 2.271-.236 2.697-.662.662-.662.662-2.176.662-2.744V47.543h-8.231c-1.75 0-2.46-.047-3.122-.568-.805-.662-.474-1.513-.19-2.27.237-.568.52-1.325.52-2.224a3.917 3.917 0 0 0-3.926-3.926c-2.129 0-3.926 1.75-3.926 3.926 0 .946.284 1.609.52 2.224.284.757.615 1.608-.189 2.27-.615.52-1.325.568-3.122.568h-8.279l-.426 6.15c0 .568.048.804.048.899.142 0 .33-.048.615-.095.52-.094 1.182-.19 2.128-.19 4.163 0 7.428 4.353 7.428 8.138 0 3.831-3.17 8.089-7.428 8.089-.946 0-1.655-.095-2.128-.19-.284-.047-.52-.094-.615-.094 0 .095-.048.379-.048.946l.474 6.197z"
            fill="#FFF3A6"></path>
        <path d="M68.594 43.9c-1.088 0-1.75-.047-2.034-.709-.19-.378-.094-.804 0-1.372.095-.473.19-1.088.19-1.94 0-3.547-3.643-6.244-6.907-6.244-3.123 0-6.954 2.791-6.954 6.245 0 .851.094 1.466.189 1.94.094.52.142.945 0 1.371-.284.662-.946.71-2.034.71l-7.285-.52v-9.367c0-1.609-.048-2.035-.284-2.318-.048-.095-.095-.095-.142-.095-.19 0-.473.142-.804.237-.616.236-1.514.567-2.65.567-2.79 0-5.109-2.27-5.109-5.109 0-2.79 2.271-5.109 5.11-5.109 1.135 0 2.033.331 2.648.568.332.142.616.236.805.236.047 0 .094 0 .142-.094.236-.284.283-.71.283-2.318v-9.32h28.006c.851 0 2.365.142 3.217.994 1.135 1.135.993 3.737.993 4.02V43.38l-7.38.52zm-23.7-1.608l6.15.426c.52 0 .804-.047.899-.047a3.28 3.28 0 0 0-.095-.615c-.095-.52-.19-1.183-.19-2.129 0-4.163 4.353-7.427 8.137-7.427 3.832 0 8.09 3.17 8.09 7.427 0 .946-.095 1.656-.19 2.129-.047.236-.094.52-.094.615.094 0 .378.047.946.047l6.15-.426V16.226c.047-.946-.047-2.554-.615-3.122-.426-.425-1.277-.662-2.365-.662H44.94v8.231c0 1.75-.047 2.46-.568 3.123-.283.33-.614.52-1.04.52-.379 0-.804-.142-1.23-.331-.568-.237-1.325-.52-2.224-.52a3.917 3.917 0 0 0-3.926 3.926c0 2.129 1.75 3.879 3.926 3.879.947 0 1.609-.284 2.224-.52.473-.19.851-.332 1.23-.332.425 0 .757.19 1.04.52.52.616.568 1.325.568 3.123v8.231h-.047z"
            fill="#FFF3A6"></path>
        <path d="M13.955 43.427a5.355 5.355 0 0 1-1.703-.284 5.121 5.121 0 0 1-3.122-6.48c.379-1.089.994-1.798 1.42-2.319.52-.614.567-.71.472-.851-.189-.331-.567-.52-2.128-1.04L0 29.33 9.177 3.311c.048-.189.663-2.365 2.13-3.074A3.164 3.164 0 0 1 12.536 0c1.324 0 2.838.615 2.885.662l25.593 9.036-1.94 7.001c-.378 1.04-.615 1.656-1.372 1.703h-.094c-.379 0-.757-.189-1.183-.426a9.684 9.684 0 0 0-1.798-.804 5.43 5.43 0 0 0-1.75-.284c-2.697 0-5.488 2.082-6.434 4.731-.52 1.514-.473 3.359.19 5.062.662 1.75 1.892 3.027 3.406 3.548.804.284 1.419.378 1.892.473.52.095.946.19 1.277.473.52.473.331 1.135 0 2.129l-2.886 6.717-8.846-3.122c-.993-.379-1.656-.568-1.987-.568-.094 0-.189 0-.284.048-.142.047-.142.142-.142.946 0 .662.048 1.608-.33 2.696a5.092 5.092 0 0 1-4.779 3.406zM1.561 28.573l7.758 2.744c1.656.567 2.318.851 2.744 1.56.52.9-.047 1.61-.615 2.224-.426.473-.899 1.088-1.23 1.94-.71 2.034.331 4.258 2.366 4.967.425.142.851.237 1.277.237a3.928 3.928 0 0 0 3.69-2.602c.33-.9.284-1.609.284-2.27 0-.805-.048-1.704.898-2.082.757-.284 1.372-.142 3.123.473l7.805 2.743 2.46-5.676c.19-.52.237-.757.237-.852a6.21 6.21 0 0 0-.615-.142c-.52-.094-1.183-.189-2.082-.52-1.845-.663-3.311-2.176-4.116-4.258-.756-1.94-.804-4.115-.189-5.866 1.136-3.17 4.352-5.535 7.57-5.535.709 0 1.466.142 2.128.379.899.331 1.514.662 1.94.899.189.094.425.236.567.284.048-.095.19-.332.379-.9l1.656-5.913-24.6-8.657c-.047 0-1.372-.567-2.46-.567-.284 0-.567.047-.71.142-.804.378-1.371 1.845-1.513 2.365L1.56 28.573zM12.82 78.576c-.851 0-2.365-.142-3.216-.993-1.136-1.136-.994-3.738-.994-4.022V46.455l7.238-.52c1.088 0 1.798.047 2.082.71.189.378.094.803 0 1.371a9.502 9.502 0 0 0-.19 1.94c0 3.548 3.643 6.244 6.907 6.244 3.122 0 6.954-2.791 6.954-6.244 0-.852-.095-1.467-.19-1.94-.094-.52-.141-.946 0-1.372.285-.662.947-.71 2.035-.71l7.285.52v9.368c0 1.608.047 2.034.284 2.318.047.094.095.094.142.094.19 0 .473-.142.804-.236.615-.237 1.514-.568 2.65-.568 2.79 0 5.108 2.27 5.108 5.11 0 2.79-2.27 5.108-5.109 5.108-1.135 0-2.034-.33-2.649-.567-.331-.142-.615-.237-.804-.237-.047 0-.095 0-.142.095-.236.284-.284.71-.284 2.318v9.414h-27.58c.048-.095-.094-.095-.33-.095zM9.793 47.543v26.066c-.047.946.047 2.554.615 3.122.426.426 1.277.662 2.365.662H39.55v-8.231c0-1.75.047-2.46.567-3.122.284-.331.615-.52 1.041-.52.378 0 .804.141 1.23.33.568.237 1.325.52 2.223.52a3.917 3.917 0 0 0 3.927-3.926c0-2.128-1.75-3.879-3.927-3.879-.946 0-1.608.284-2.223.52-.473.19-.852.332-1.23.332-.426 0-.757-.19-1.04-.52-.521-.615-.568-1.325-.568-3.123v-8.278l-6.15-.426c-.52 0-.805.047-.9.047 0 .142.048.426.095.615.095.52.19 1.183.19 2.129 0 4.163-4.352 7.427-8.137 7.427-3.832 0-8.09-3.17-8.09-7.427 0-.946.095-1.656.19-2.129a4.97 4.97 0 0 0 .095-.615c-.095 0-.379-.047-.947-.047l-6.102.473z"
            fill="#FFF3A6"></path>
        </symbol>
        <symbol viewBox="0 0 75 93"  xmlns="http://www.w3.org/2000/svg" id="star">
        <path d="M50.122 11.609c-10.775-5.179-23.755-3.2-32.299 4.926-9.929 9.443-10.922 24.5-2.312 35.024a1.57 1.57 0 0 0 1.22.567c.33 0 .665-.1.947-.31a1.42 1.42 0 0 0 .27-2.061c-7.657-9.358-6.77-22.747 2.058-31.145 7.598-7.226 19.14-8.987 28.724-4.383.76.367 1.689.076 2.074-.648.384-.721.08-1.604-.682-1.97zM62.45 23.336c-.385-.724-1.312-1.014-2.074-.648-.76.366-1.066 1.248-.682 1.972 4.839 9.112 2.986 20.088-4.61 27.312-8.83 8.398-22.91 9.24-32.747 1.958-.673-.498-1.643-.383-2.167.257-.524.64-.403 1.561.27 2.06 5.04 3.73 11.07 5.566 17.08 5.566 7.185 0 14.341-2.622 19.747-7.765 8.541-8.124 10.624-20.466 5.183-30.712zm-3.989-5.592a27.13 27.13 0 0 0-2.463-2.343 1.599 1.599 0 0 0-2.18.129 1.418 1.418 0 0 0 .135 2.072 24.414 24.414 0 0 1 2.197 2.089c.305.328.73.496 1.157.496a1.58 1.58 0 0 0 1.021-.368c.638-.54.697-1.468.133-2.075z"
            fill="#FFF3A6"></path>
        <path d="M73.983 37.923a4.777 4.777 0 0 0 0-5.206l-2.03-3.168a1.986 1.986 0 0 1-.292-1.395l.605-3.658c.31-1.864-.496-3.711-2.1-4.821l-3.147-2.178a2.064 2.064 0 0 1-.833-1.184l-.917-3.603c-.465-1.83-1.95-3.242-3.873-3.685l-3.788-.872a2.18 2.18 0 0 1-1.244-.793l-2.29-2.993c-1.168-1.527-3.11-2.293-5.07-2l-3.848.576a2.264 2.264 0 0 1-1.467-.277L40.357.734a5.472 5.472 0 0 0-5.475 0l-3.33 1.93c-.439.254-.96.353-1.468.278l-3.847-.576c-1.958-.293-3.903.473-5.069 2l-2.29 2.993a2.184 2.184 0 0 1-1.245.793l-3.788.872c-1.924.443-3.409 1.854-3.875 3.685l-.917 3.603a2.064 2.064 0 0 1-.833 1.184l-3.148 2.177c-1.605 1.11-2.41 2.957-2.102 4.821l.605 3.66c.08.483-.024.979-.29 1.395l-2.032 3.168a4.777 4.777 0 0 0 0 5.206l2.031 3.168c.267.418.37.914.291 1.395l-.605 3.658c-.309 1.865.496 3.711 2.1 4.821l3.148 2.178c.416.288.711.708.832 1.184l.917 3.603c.465 1.83 1.95 3.242 3.873 3.685l1.583.364L4.718 84.691a1.41 1.41 0 0 0 .165 1.47c.329.426.874.65 1.426.587l8.613-.98 4.963 6.767a1.57 1.57 0 0 0 1.412.623 1.544 1.544 0 0 0 1.263-.86L33.494 69.1l1.386.803c.845.49 1.791.734 2.737.734a5.46 5.46 0 0 0 2.737-.734l1.435-.832 10.947 23.226a1.538 1.538 0 0 0 1.409.867c.502 0 .976-.233 1.266-.629l4.963-6.767 8.614.98a1.581 1.581 0 0 0 1.426-.587 1.41 1.41 0 0 0 .165-1.47L59.868 61.965l1.522-.35c1.923-.443 3.409-1.854 3.875-3.684l.917-3.604c.12-.475.416-.896.832-1.184l3.149-2.177c1.605-1.11 2.41-2.957 2.102-4.821l-.605-3.66c-.08-.482.023-.978.29-1.395l2.033-3.168zM20.858 88.731l-3.932-5.363a1.578 1.578 0 0 0-1.45-.619l-6.826.777 9.753-20.693c.179.123.338.274.47.447l2.29 2.993c.216.285.461.542.729.773l-5.135 10.89c-.348.74-.001 1.61.777 1.94.205.088.42.13.63.13.59 0 1.153-.324 1.41-.869l5.116-10.853a5.572 5.572 0 0 0 1.543-.013l3.848-.576c.23-.034.464-.03.69.005l-9.913 21.03zm45.79-5.205l-6.827-.777a1.573 1.573 0 0 0-1.45.619L54.44 88.73l-9.917-21.039c.208-.026.42-.026.63.005l3.847.575c.542.081 1.08.079 1.603.005l5.12 10.862c.256.544.819.868 1.41.868.21 0 .424-.042.63-.129.777-.332 1.126-1.2.776-1.94l-5.153-10.932c.248-.22.478-.462.683-.731l2.29-2.994c.144-.189.32-.35.52-.48l9.77 20.725zm4.699-47.132l-2.031 3.168a4.796 4.796 0 0 0-.704 3.38l.605 3.66c.127.769-.206 1.532-.868 1.99L65.2 50.769a5 5 0 0 0-2.018 2.868l-.917 3.604c-.192.756-.804 1.337-1.598 1.52l-3.788.873a5.289 5.289 0 0 0-3.016 1.919l-2.29 2.993a2.212 2.212 0 0 1-2.093.826l-3.847-.576a5.49 5.49 0 0 0-3.555.67l-3.33 1.93a2.256 2.256 0 0 1-2.26 0l-3.332-1.931a5.463 5.463 0 0 0-3.554-.67l-3.849.575a2.215 2.215 0 0 1-2.093-.825l-2.29-2.994a5.29 5.29 0 0 0-3.015-1.919l-3.788-.872c-.794-.183-1.407-.766-1.6-1.52l-.916-3.604a5 5 0 0 0-2.018-2.868L6.886 48.59c-.663-.457-.995-1.22-.868-1.99l.605-3.658a4.802 4.802 0 0 0-.704-3.38l-2.031-3.168a1.97 1.97 0 0 1 0-2.15l2.031-3.167a4.804 4.804 0 0 0 .706-3.38l-.606-3.66c-.126-.77.206-1.532.869-1.99l3.148-2.178a5 5 0 0 0 2.018-2.868l.917-3.603c.192-.756.804-1.339 1.599-1.52l3.788-.873a5.29 5.29 0 0 0 3.015-1.92l2.29-2.993a2.212 2.212 0 0 1 2.093-.825l3.847.576a5.49 5.49 0 0 0 3.555-.67l3.33-1.931a2.257 2.257 0 0 1 2.26 0l3.332 1.932a5.482 5.482 0 0 0 3.555.67l3.848-.575a2.215 2.215 0 0 1 2.093.825l2.29 2.993a5.29 5.29 0 0 0 3.016 1.92l3.788.872c.794.183 1.406.766 1.598 1.52l.917 3.604a5 5 0 0 0 2.018 2.868l3.147 2.177c.663.458.995 1.221.868 1.99l-.605 3.658a4.81 4.81 0 0 0 .704 3.38l2.031 3.169a1.973 1.973 0 0 1-.001 2.149z"
            fill="#FFF3A6"></path>
        <path d="M55.682 30.752c-.34-.996-1.232-1.692-2.325-1.814l-9.29-1.048-3.918-8.078c-.46-.95-1.432-1.541-2.533-1.541s-2.073.59-2.533 1.541l-3.918 8.08-9.29 1.047c-1.093.124-1.984.82-2.325 1.814-.34.995-.048 2.057.76 2.768l6.866 6.04-1.823 8.727c-.214 1.027.205 2.047 1.097 2.663.492.34 1.061.51 1.636.51.466 0 .936-.113 1.365-.342l8.162-4.344 8.162 4.344a2.88 2.88 0 0 0 3.002-.168c.892-.616 1.311-1.636 1.097-2.663l-1.823-8.726 6.867-6.04c.814-.714 1.105-1.773.764-2.77zm-10.357 7.21a1.425 1.425 0 0 0-.467 1.364l1.866 8.93-8.354-4.447a1.616 1.616 0 0 0-1.508 0l-8.354 4.446 1.866-8.93a1.425 1.425 0 0 0-.467-1.363L22.88 31.78l9.507-1.072c.533-.06.995-.38 1.22-.843l4.01-8.266 4.01 8.266a1.54 1.54 0 0 0 1.22.843l9.507 1.072-7.028 6.18z"
            fill="#FFF3A6"></path>
        </symbol>
        <symbol viewBox="0 0 86 86" fill="none" xmlns="http://www.w3.org/2000/svg" id="interest-points">
            <path fill-rule="evenodd" clip-rule="evenodd" d="M37.342 19.237c0 9.998-8.105 18.105-18.105 18.105S1.132 29.235 1.132 19.237c0-9.999 8.105-18.106 18.105-18.106s18.105 8.107 18.105 18.106zm47.526 0c0 9.998-8.105 18.105-18.105 18.105s-18.105-8.107-18.105-18.105c0-9.999 8.105-18.106 18.105-18.106s18.105 8.107 18.105 18.106zM37.342 66.763c0 9.999-8.105 18.105-18.105 18.105S1.132 76.762 1.132 66.763s8.105-18.105 18.105-18.105 18.105 8.106 18.105 18.105zm47.526 0c0 9.999-8.105 18.105-18.105 18.105s-18.105-8.106-18.105-18.105 8.105-18.105 18.105-18.105 18.105 8.106 18.105 18.105z"
            stroke="#fff" stroke-width="2" stroke-linecap="round" stroke-linejoin="round"></path>
            <path fill-rule="evenodd" clip-rule="evenodd" d="M20.368 26.026h-2.263A4.527 4.527 0 0 1 13.58 21.5v-7.921h11.316v7.92c0 2.5-2.027 4.527-4.527 4.527z" stroke="#fff" stroke-width="2" stroke-linecap="round" stroke-linejoin="round"></path>
            <path d="M9.053 26.026H29.42" stroke="#fff" stroke-width="2" stroke-linecap="round" stroke-linejoin="round"></path>
            <path fill-rule="evenodd" clip-rule="evenodd" d="M73.553 27.158h-13.58l-1.131-10.184h15.842l-1.131 10.184z" stroke="#fff" stroke-width="2" stroke-linecap="round" stroke-linejoin="round"></path>
            <path d="M66.763 16.974v-6.79M64.5 21.5v1.132m4.526-1.132v1.132" stroke="#fff" stroke-width="2" stroke-linecap="round" stroke-linejoin="round"></path>
            <path fill-rule="evenodd" clip-rule="evenodd" d="M27.158 15.842a2.264 2.264 0 0 1 2.263 2.263v1.131a2.264 2.264 0 0 1-4.526 0v-1.131a2.264 2.264 0 0 1 2.263-2.263z" stroke="#fff" stroke-width="2" stroke-linecap="round" stroke-linejoin="round"></path>
            <path d="M19.237 37.342v11.316m47.526-11.316v11.316M37.342 19.237h11.316M37.342 66.763h11.316" stroke="#fff" stroke-width="2" stroke-linecap="round" stroke-linejoin="round"></path>
            <path fill-rule="evenodd" clip-rule="evenodd" d="M59.974 72.42a2.264 2.264 0 0 1-2.264-2.262v-6.79a2.264 2.264 0 0 1 4.527 0v6.79a2.264 2.264 0 0 1-2.263 2.263zm13.579 0a2.264 2.264 0 0 1-2.263-2.262v-6.79a2.264 2.264 0 0 1 4.526 0v6.79a2.264 2.264 0 0 1-2.263 2.263z"
            stroke="#fff" stroke-width="2" stroke-linecap="round" stroke-linejoin="round"></path>
            <path d="M55.447 66.763h2.263m4.527 0h9.053m4.526 0h2.263" stroke="#fff" stroke-width="2" stroke-linecap="round" stroke-linejoin="round"></path>
            <path fill-rule="evenodd" clip-rule="evenodd" d="M27.605 70.862l-8.369-5.23-8.368 5.23a1.456 1.456 0 0 0 .773 2.69h15.191a1.456 1.456 0 0 0 .773-2.69z" stroke="#fff" stroke-width="2" stroke-linecap="round" stroke-linejoin="round"></path>
            <path d="M22.066 59.408a2.835 2.835 0 0 0-3.583-2.732 2.8 2.8 0 0 0-1.978 1.978 2.838 2.838 0 0 0 1.545 3.322c.754.35 1.187 1.159 1.187 1.99v1.665" stroke="#fff" stroke-width="2" stroke-linecap="round" stroke-linejoin="round"></path>
        </symbol>
        <symbol viewBox="0 0 78 78" fill="none" xmlns="http://www.w3.org/2000/svg" id="location">
            <path fill-rule="evenodd" clip-rule="evenodd" d="M77 39C77 18.013 59.987 1 39 1S1 18.013 1 39s17.013 38 38 38 38-17.013 38-38z" stroke="#fff" stroke-width="2" stroke-linecap="round" stroke-linejoin="round"></path>
            <path d="M20.422 35A19.101 19.101 0 0 0 20 39c0 10.493 8.507 19 19 19s19-8.507 19-19c0-10.494-8.507-19-19-19a19 19 0 0 0-5 .666" stroke="#fff" stroke-width="2" stroke-linecap="round" stroke-linejoin="round"></path>
            <path fill-rule="evenodd" clip-rule="evenodd" d="M48 39a9 9 0 0 0-9-9 9 9 0 0 0-9 9 9 9 0 0 0 9 9 9 9 0 0 0 9-9zM29 24a4 4 0 0 0-8 0c0 3 4 8 4 8s4-5 4-8z" stroke="#fff" stroke-width="2" stroke-linecap="round" stroke-linejoin="round"></path>
        </symbol>
        <symbol viewBox="0 0 40 87" fill="none" xmlns="http://www.w3.org/2000/svg" id="tover">
            <path d="M5 86V31h6m18 0h6v55m-24 0V19h18v67m-4-67V9H15v10m5-10V1M1 86h38" stroke="#fff" stroke-width="2" stroke-linecap="round" stroke-linejoin="round"></path>
        </symbol>
        <symbol viewBox="0 0 70 44" fill="none" xmlns="http://www.w3.org/2000/svg" id="play-button">
            <rect x=".75" y=".75" width="68.5" height="28.5" rx="1.25" stroke="#423C3A" stroke-width="1.5"></rect>
            <circle cx="35.5" cy="40.5" r="2.75" stroke="#423C3A" stroke-width="1.5"></circle>
            <path stroke="#423C3A" stroke-width="1.5" stroke-linecap="round" stroke-linejoin="round" d="M32.25 40.75H2.75m64.5 0h-28.5"></path>
            <path d="M38.41 14.488a.5.5 0 0 1 0 .822l-4.744 3.287a.5.5 0 0 1-.785-.411v-6.574a.5.5 0 0 1 .785-.41l4.744 3.286z" stroke="#423C3A"></path>
        </symbol>
        <symbol viewBox="0 0 88 93" xmlns="http://www.w3.org/2000/svg" id="lamp">
            <path d="M44.422 10.273a1.427 1.427 0 0 0 1.429-1.426v-7.24a1.428 1.428 0 0 0-2.856 0v7.238c0 .789.64 1.428 1.427 1.428zm-25.806 8.54a1.427 1.427 0 0 0 2.016 0 1.427 1.427 0 0 0 0-2.018l-5.118-5.118a1.426 1.426 0 0 0-2.017 2.016l5.119 5.12zm54.716-7.132l-5.12 5.12a1.43 1.43 0 1 0 2.017 2.017l5.12-5.119a1.427 1.427 0 0 0-2.017-2.018zM18.616 66.043l-5.119 5.121a1.427 1.427 0 0 0 2.018 2.017l5.119-5.119a1.43 1.43 0 0 0-1.01-2.438 1.424 1.424 0 0 0-1.008.419zm51.612.002a1.421 1.421 0 0 0-2.017 0 1.43 1.43 0 0 0 0 2.02l5.12 5.114a1.432 1.432 0 0 0 2.018 0 1.426 1.426 0 0 0 0-2.016l-5.121-5.117zM8.958 41.129h-7.24a1.426 1.426 0 0 0 0 2.852h7.24a1.428 1.428 0 0 0 0-2.852zm77.326 0h-7.241a1.43 1.43 0 0 0-1.43 1.426 1.43 1.43 0 0 0 1.43 1.426h7.24a1.426 1.426 0 1 0 0-2.852zM44.422 13.82c-15.872 0-28.783 12.913-28.783 28.784 0 11.758 7.243 22.368 18.127 26.715v15.142a1.43 1.43 0 0 0 1.426 1.429h2.648v4.756c0 .788.639 1.429 1.426 1.429h10.315a1.43 1.43 0 0 0 1.428-1.43V85.89h2.648a1.43 1.43 0 0 0 1.426-1.43V69.32c10.884-4.348 18.13-14.958 18.13-26.716C73.21 26.733 60.294 13.82 44.422 13.82zm5.158 69.215a1.426 1.426 0 0 0-1.426 1.426v4.76H40.69v-4.76a1.428 1.428 0 0 0-1.428-1.426h-2.646v-7.633h15.608v7.633H49.58zm3.59-16.042a1.425 1.425 0 0 0-.944 1.34v4.216H36.618v-4.217a1.425 1.425 0 0 0-.944-1.34C25.394 63.298 18.49 53.499 18.49 42.605c0-14.3 11.632-25.932 25.93-25.932 14.3 0 25.936 11.633 25.936 25.932 0 10.894-6.908 20.694-17.186 24.389z"
            ></path>
            <path d="M44.39 22.142c-11.257 0-20.412 9.156-20.412 20.41a1.427 1.427 0 0 0 2.854 0c0-9.683 7.875-17.56 17.559-17.56a1.424 1.424 0 0 0 1.006-2.433 1.426 1.426 0 0 0-1.008-.417z" ></path>
        </symbol>
        <symbol viewBox="0 0 88 88"  xmlns="http://www.w3.org/2000/svg" id="town">
            <path d="M31.82 32.984H1.994A1.425 1.425 0 0 0 .568 34.41v51.557a1.427 1.427 0 0 0 2.852 0v-50.13h26.973v50.13a1.426 1.426 0 0 0 2.853 0V34.412a1.428 1.428 0 0 0-1.426-1.428z" ></path>
            <path d="M75.121 42.471H58.956V2.286A1.424 1.424 0 0 0 57.529.86H26.377a1.426 1.426 0 0 0-1.427 1.426v27.665a1.426 1.426 0 0 0 2.853 0V3.712h28.3v38.759h-5.316a1.428 1.428 0 0 0-1.426 1.426v42.07a1.426 1.426 0 1 0 2.852 0V45.322h21.48v40.645a1.427 1.427 0 0 0 2.855 0v-42.07a1.43 1.43 0 0 0-1.427-1.426z"
            ></path>
            <path d="M86.617 7.389a1.411 1.411 0 0 0-1.504.179l-4.482 3.629v-.424c0-.79-.635-1.427-1.424-1.427a1.43 1.43 0 0 0-1.429 1.427v2.673c0 .019.012.035.012.053l-2.573 2.085V6.02a1.426 1.426 0 0 0-2.852 0v11.753c0 .036.02.067.023.104l-2.582 2.09v-5.885a1.427 1.427 0 1 0-2.854 0v8.198l-3.58 2.905a1.42 1.42 0 0 0-.528 1.108v13.533a1.43 1.43 0 0 0 1.987 1.377 1.428 1.428 0 0 0 .865-1.377V29.073h8.021v1.303a1.425 1.425 0 0 0 1.428 1.426h9.438v54.166a1.428 1.428 0 1 0 2.857 0V8.675a1.44 1.44 0 0 0-.823-1.286zM66.622 26.22L84.58 11.665v11.849h-9.438a1.426 1.426 0 0 0-1.426 1.426v1.28h-7.094zm9.949 2.727v-2.582h8.01v2.582h-8.01zM27.621 38.4H6.236a1.427 1.427 0 0 0 0 2.854h21.385a1.428 1.428 0 0 0-.002-2.854zM54.865 7.347a1.428 1.428 0 0 0-1.428-1.426H30.49a1.426 1.426 0 1 0 0 2.853h22.95a1.424 1.424 0 0 0 1.426-1.427zM53.54 12.81a1.427 1.427 0 0 0-1.426-1.427H31.82a1.426 1.426 0 0 0-1.427 1.427v6.492c0 .787.64 1.426 1.427 1.426h20.295a1.43 1.43 0 0 0 1.427-1.426l-.001-6.492zm-2.85 5.064H33.243v-3.64H50.69v3.64z"
            ></path>
            <path d="M71.037 47.872H54.82a1.428 1.428 0 1 0 0 2.855h16.217a1.428 1.428 0 1 0 0-2.855zm-13.508 5.41a1.428 1.428 0 0 0-1.427 1.428v31.257a1.426 1.426 0 1 0 2.853 0V54.71a1.423 1.423 0 0 0-1.426-1.428zm5.399 0a1.428 1.428 0 0 0-1.426 1.428v31.257a1.428 1.428 0 1 0 2.855 0V54.71a1.43 1.43 0 0 0-1.43-1.428zm5.427 0a1.43 1.43 0 0 0-1.43 1.428v31.257a1.43 1.43 0 0 0 2.856 0V54.71a1.427 1.427 0 0 0-1.426-1.428zM25.078 77.578a1.425 1.425 0 0 0-1.428 1.425v2.779a1.427 1.427 0 0 0 2.854 0V79a1.428 1.428 0 0 0-1.426-1.424zm-8.172 0a1.426 1.426 0 0 0-1.428 1.425v2.779a1.427 1.427 0 1 0 2.854 0V79a1.424 1.424 0 0 0-1.426-1.424zm-8.094 0a1.425 1.425 0 0 0-1.428 1.425v2.779a1.427 1.427 0 0 0 2.854 0V79a1.424 1.424 0 0 0-1.426-1.424zm16.266-10.79a1.427 1.427 0 0 0-1.428 1.425v2.778a1.427 1.427 0 0 0 2.854 0v-2.778a1.426 1.426 0 0 0-1.426-1.426zm-8.172 0a1.427 1.427 0 0 0-1.428 1.425v2.778a1.427 1.427 0 0 0 2.854 0v-2.778a1.424 1.424 0 0 0-1.426-1.426zm-8.094 0a1.427 1.427 0 0 0-1.428 1.425v2.778a1.427 1.427 0 0 0 2.854 0v-2.778a1.423 1.423 0 0 0-1.426-1.426zM25.078 55.96a1.425 1.425 0 0 0-1.428 1.423v2.78a1.427 1.427 0 0 0 2.854 0v-2.78a1.424 1.424 0 0 0-1.426-1.423zm-8.172 0a1.426 1.426 0 0 0-1.428 1.423v2.78a1.427 1.427 0 1 0 2.854 0v-2.78a1.423 1.423 0 0 0-1.426-1.423zm-8.094 0a1.425 1.425 0 0 0-1.428 1.423v2.78a1.427 1.427 0 0 0 2.854 0v-2.78a1.423 1.423 0 0 0-1.426-1.423zm16.266-10.8a1.425 1.425 0 0 0-1.428 1.425v2.775a1.427 1.427 0 0 0 2.854 0v-2.775a1.428 1.428 0 0 0-1.426-1.425zm-8.172 0a1.426 1.426 0 0 0-1.428 1.425v2.775a1.428 1.428 0 0 0 2.854 0v-2.775a1.425 1.425 0 0 0-1.426-1.425zm-8.094 0a1.425 1.425 0 0 0-1.428 1.425v2.775a1.427 1.427 0 0 0 2.854 0v-2.775a1.425 1.425 0 0 0-1.426-1.425zm29.77 35.191a1.43 1.43 0 0 0-1.428 1.43v2.706a1.428 1.428 0 0 0 2.854 0v-2.705a1.429 1.429 0 0 0-1.426-1.43zm6.765 0a1.43 1.43 0 0 0-1.426 1.43v2.706a1.428 1.428 0 0 0 2.853 0v-2.705a1.428 1.428 0 0 0-1.427-1.43zm-6.765-9.47a1.432 1.432 0 0 0-1.428 1.429v2.707c0 .787.64 1.423 1.428 1.423.787 0 1.426-.636 1.426-1.423V72.31a1.427 1.427 0 0 0-1.426-1.43zm6.765 0a1.43 1.43 0 0 0-1.426 1.429v2.707a1.427 1.427 0 1 0 2.853 0V72.31a1.426 1.426 0 0 0-1.427-1.43zm-6.765-9.475a1.43 1.43 0 0 0-1.428 1.426v2.71a1.428 1.428 0 0 0 2.854 0V62.83a1.424 1.424 0 0 0-1.426-1.424zm6.765 0a1.43 1.43 0 0 0-1.426 1.426v2.71a1.428 1.428 0 0 0 2.853 0V62.83a1.425 1.425 0 0 0-1.427-1.424zm-6.765-9.474a1.429 1.429 0 0 0-1.428 1.428v2.707a1.428 1.428 0 0 0 2.854 0V53.36a1.427 1.427 0 0 0-1.426-1.428zm6.765 0a1.43 1.43 0 0 0-1.426 1.428v2.707a1.429 1.429 0 0 0 2.853 0V53.36a1.428 1.428 0 0 0-1.427-1.428zm-6.765-9.473a1.426 1.426 0 0 0-1.428 1.425v2.708a1.428 1.428 0 0 0 2.854 0v-2.709a1.424 1.424 0 0 0-1.426-1.424zm6.765 0a1.426 1.426 0 0 0-1.426 1.425v2.708a1.428 1.428 0 0 0 2.853 0v-2.709a1.424 1.424 0 0 0-1.427-1.424zm-6.765-9.474a1.428 1.428 0 0 0-1.428 1.427v2.705a1.428 1.428 0 0 0 2.854 0v-2.705a1.428 1.428 0 0 0-1.426-1.427zm0-9.47a1.428 1.428 0 0 0-1.428 1.426v2.705a1.428 1.428 0 0 0 2.854 0V24.94a1.426 1.426 0 0 0-1.426-1.426zm6.765 0a1.428 1.428 0 0 0-1.426 1.426v2.705a1.428 1.428 0 0 0 2.853 0V24.94a1.425 1.425 0 0 0-1.427-1.426zm8.194 1.426a1.427 1.427 0 0 0-2.852 0v2.705a1.426 1.426 0 1 0 2.852 0V24.94zM31.82 23.514a1.426 1.426 0 0 0-1.427 1.426v2.705a1.426 1.426 0 1 0 2.853 0V24.94a1.426 1.426 0 0 0-1.426-1.426zm13.527 9.47a1.428 1.428 0 0 0-1.426 1.427v2.705a1.429 1.429 0 0 0 2.853 0v-2.705a1.427 1.427 0 0 0-1.427-1.427zm6.768 0a1.425 1.425 0 0 0-1.426 1.427v2.705a1.426 1.426 0 1 0 2.852 0v-2.705a1.427 1.427 0 0 0-1.426-1.427zm28.417 48.719a1.429 1.429 0 0 0-1.426 1.429v2.838a1.425 1.425 0 0 0 2.435 1.007 1.43 1.43 0 0 0 .42-1.007v-2.838a1.43 1.43 0 0 0-1.429-1.43zm0-9.532a1.421 1.421 0 0 0-1.426 1.423v2.838a1.428 1.428 0 0 0 2.855 0v-2.838a1.424 1.424 0 0 0-1.429-1.423zm0-9.475a1.425 1.425 0 0 0-1.426 1.426v2.839a1.428 1.428 0 0 0 2.855 0v-2.84a1.428 1.428 0 0 0-1.429-1.425zm0-9.477a1.425 1.425 0 0 0-1.426 1.426v2.838a1.427 1.427 0 1 0 2.855 0v-2.837a1.431 1.431 0 0 0-1.429-1.427zm0-9.48a1.428 1.428 0 0 0-1.426 1.429v2.837a1.43 1.43 0 0 0 2.855 0v-2.837a1.432 1.432 0 0 0-1.429-1.43zm0-9.465a1.425 1.425 0 0 0-1.426 1.426v2.836a1.427 1.427 0 1 0 2.855 0V35.7a1.43 1.43 0 0 0-1.429-1.426zm-5.41 0A1.43 1.43 0 0 0 73.69 35.7v2.836a1.427 1.427 0 1 0 2.853 0V35.7a1.425 1.425 0 0 0-1.423-1.426zm-4.013 4.262V35.7a1.426 1.426 0 0 0-2.853 0v2.836a1.428 1.428 0 0 0 2.853 0z"
            ></path>
        </symbol>
        <symbol viewBox="0 0 86 93" xmlns="http://www.w3.org/2000/svg" id="handshake">
            <path d="M43 10.127a1.429 1.429 0 0 0 1.429-1.426v-7.24a1.428 1.428 0 1 0-2.855 0v7.24A1.425 1.425 0 0 0 43 10.127zM20.875 16.68a1.425 1.425 0 0 0 2.435-1.008c0-.378-.15-.74-.417-1.008l-5.12-5.117a1.426 1.426 0 0 0-2.017 2.016l5.119 5.117zm42.94.419a1.421 1.421 0 0 0 1.008-.419l5.12-5.118a1.426 1.426 0 0 0-2.017-2.017l-5.12 5.119a1.426 1.426 0 0 0 1.01 2.435zM43 82.125a1.43 1.43 0 0 0-1.426 1.43v7.239a1.426 1.426 0 1 0 2.855 0v-7.24A1.43 1.43 0 0 0 43 82.125zm21.821-8.24a1.422 1.422 0 0 0-2.016 0 1.424 1.424 0 0 0 0 2.017l5.12 5.113a1.427 1.427 0 1 0 2.015-2.017l-5.119-5.112zm-45.277 0l-5.116 5.118a1.424 1.424 0 0 0 1.008 2.433c.379 0 .742-.15 1.01-.417l5.117-5.117a1.427 1.427 0 1 0-2.019-2.016zm64.972-4.422h-3.644l-2.005-48.85h5.653a1.428 1.428 0 0 0 0-2.853h-8.623l.184 4.468h-9.816l.175 2.651a41.008 41.008 0 0 0-27.547 1.5c-.067-.032-.122-.082-.194-.104a41.35 41.35 0 0 0-19.148-1.131l.19-2.914H9.93l.182-4.468h-8.63a1.428 1.428 0 0 0 0 2.852h5.655L5.134 69.466H1.483a1.426 1.426 0 1 0 0 2.853H7.87l.372-9.058c.123.035.245.082.382.082h8.436l.315-4.834L31.17 71.778c.01.013.023.013.03.022a5.59 5.59 0 0 0 3.893 1.69h.133a5.627 5.627 0 0 0 3.904-1.564c.28-.267.52-.565.733-.875a5.89 5.89 0 0 0 3.654 1.267 5.802 5.802 0 0 0 2.873-.76c.93-.523 1.65-1.297 2.168-2.192.927.6 1.987.95 3.073.95a5.615 5.615 0 0 0 4.968-2.99 5.657 5.657 0 0 0 .657-2.456 5.57 5.57 0 0 0 1.113.133 5.61 5.61 0 0 0 3.217-1.01 5.628 5.628 0 0 0 2.354-3.652c.01-.049.003-.1.014-.153h4.785l.204 3.152h8.436c.136 0 .259-.046.382-.082l.376 9.057h6.383a1.43 1.43 0 0 0 1.431-1.429 1.436 1.436 0 0 0-1.436-1.423zm-75.894-8.98c-.095 0-.179.034-.271.055l1.457-35.46h6.885l-.1 1.55v.01l-2.206 33.844H8.622v.001zm51.34 1.162a2.819 2.819 0 0 1-3.915-.704 1.367 1.367 0 0 0-.433-.399l-8.187-9.347a1.433 1.433 0 0 0-2.011-.134 1.43 1.43 0 0 0-.135 2.014l8.38 9.564c.033.04.083.056.122.093.04.093.064.187.124.272a2.824 2.824 0 0 1-.643 3.93 2.82 2.82 0 0 1-3.93-.642 1.388 1.388 0 0 0-.528-.424l-8.047-9.397a1.426 1.426 0 0 0-2.165 1.853l7.758 9.062a2.978 2.978 0 0 1-3.655 1.97 2.967 2.967 0 0 1-1.81-1.42 1.37 1.37 0 0 0-.576-.533c-.049-.072-.08-.153-.143-.215l-6.746-6.77a1.428 1.428 0 1 0-2.022 2.014l6.405 6.426c-.15.37-.347.72-.643 1.005-.544.52-1.246.827-2.005.774a2.806 2.806 0 0 1-1.971-.867c-.006-.009-.018-.013-.025-.017-.008-.008-.01-.02-.02-.03L17.75 54.906c-.04-.036-.092-.051-.135-.086l1.742-26.743a38.46 38.46 0 0 1 17.318.602 27.598 27.598 0 0 0-7.135 16.46c-.01.135.022.263.047.39-.027.073-.07.136-.084.215a5.823 5.823 0 0 0 4.762 6.69 5.797 5.797 0 0 0 6.584-4.365c.046-.092.097-.183.124-.288a15.68 15.68 0 0 1 5.565-8.684L60.61 57.58c.027.047.031.098.063.147a2.805 2.805 0 0 1-.71 3.917zm3.681-4.31a5.781 5.781 0 0 0-.364-.766 1.452 1.452 0 0 0-.25-.517L47.96 36.26c-.048-.063-.114-.097-.168-.15-.075-.069-.141-.144-.223-.195-.072-.044-.15-.063-.225-.094-.093-.037-.187-.08-.282-.097-.08-.012-.154-.001-.232-.001-.103 0-.209-.006-.31.017-.088.02-.163.063-.244.099-.079.033-.157.045-.229.094-.026.016-.045.035-.072.051l-.006.003-.006.006a18.516 18.516 0 0 0-7.683 10.866c-.051.111-.114.217-.136.346a2.942 2.942 0 0 1-3.397 2.418 2.964 2.964 0 0 1-2.425-3.405c.029-.18.022-.364-.02-.542.031-.102.078-.198.087-.31A24.763 24.763 0 0 1 40.4 28.98c.058-.053.087-.123.133-.183a38.172 38.172 0 0 1 26.105-.89l1.917 29.424h-4.909v.003h-.003zm13.732 3.148H71.61l-.094-1.468c.015-.089.052-.165.052-.256a1.432 1.432 0 0 0-.1-.505l-2.05-31.44c-.002-.047-.002-.093-.01-.138l-.104-1.598h6.886l1.457 35.46c-.093-.018-.178-.055-.273-.055z"
            ></path>
        </symbol>



<symbol viewBox="0 0 97 93" xmlns="http://www.w3.org/2000/svg" id="market">
    <path d="M7.179 72.067a1.25 1.25 0 0 1 1.222-.988h80.728a1.25 1.25 0 0 1 1.224 1l3.81 18.671a1.25 1.25 0 0 1-1.224 1.5H4.4a1.25 1.25 0 0 1-1.221-1.512l4-18.671z" stroke="#FFF3A6" stroke-width="1.5" stroke-linecap="round" stroke-linejoin="round"></path>
    <path stroke="#FFF3A6" stroke-width="1.5" d="M2.676 65.063h92.425v4.978H2.676z"></path>
    <circle cx="22.283" cy="59.686" r="3.877" stroke="#FFF3A6" stroke-width="1.5"></circle>
    <circle cx="30.612" cy="59.686" r="3.877" stroke="#FFF3A6" stroke-width="1.5"></circle>
    <circle cx="38.94" cy="59.686" r="3.877" stroke="#FFF3A6" stroke-width="1.5"></circle>
    <circle cx="34.776" cy="52.284" r="3.877" stroke="#FFF3A6" stroke-width="1.5"></circle>
    <circle cx="26.447" cy="52.284" r="3.877" stroke="#FFF3A6" stroke-width="1.5"></circle>
    <circle cx="30.612" cy="44.88" r="3.877" stroke="#FFF3A6" stroke-width="1.5"></circle>
    <path d="M57.647 55.982a1.25 1.25 0 0 1 1.916 0l4.73 5.644c.682.813.103 2.053-.958 2.053h-9.46c-1.062 0-1.64-1.24-.958-2.053l4.73-5.644zm16.193 0a1.25 1.25 0 0 1 1.916 0l4.73 5.644c.682.813.104 2.053-.958 2.053h-9.46c-1.061 0-1.64-1.24-.958-2.053l4.73-5.644z"
      stroke="#FFF3A6" stroke-width="1.5"></path>
    <path stroke="#FFF3A6" stroke-width="2" stroke-linecap="round" stroke-linejoin="round" d="M60.687 55.959l4.926-4.927m6.153 5.464l-5.478-5.113m-.587-1.025v-11.88"></path>
    <path d="M73.72 40.941a.25.25 0 0 1 0 .476l-6.866 2.23a.25.25 0 0 1-.328-.238v-4.46c0-.17.166-.29.328-.238l6.867 2.23zM11.004 18.97v45.343M88.272 18.97v45.343M1 18.623h94.741M6.873 5.683l-5.41 12.825M7.302.75h82.709v4.515H7.302zm88.086 17.757L90.438 5.68m-74.968.091l-4.863 13.042M27.178 5.521L23.705 19M38.039 5.46l-1.511 13.37M49.29 5.516l-.106 13.454M60.718 5.51l1.535 13.367m9.341-13.341l3.38 13.023m7.952-13.057l4.885 13.032M1.75 18.507v6.478m93.638-6.709v6.71"
      stroke="#FFF3A6" stroke-width="1.5"></path>
    <path d="M23.15 19.008c-.263 3.053-2.918 5.477-6.187 5.477-3.27 0-5.924-2.424-6.188-5.477H23.15zm12.494 0a5.978 5.978 0 0 1-11.914 0h11.914zm12.954 0c-.264 3.053-2.919 5.477-6.188 5.477-3.27 0-5.924-2.424-6.187-5.477h12.375zm12.955 0c-.264 3.053-2.918 5.477-6.188 5.477-3.269 0-5.924-2.424-6.187-5.477h12.375zm12.956 0c-.264 3.053-2.918 5.477-6.188 5.477-3.269 0-5.924-2.424-6.187-5.477h12.375zm12.493 0a5.978 5.978 0 0 1-11.914 0h11.914zm8.386 5.746c-4.858.231-8.097-2.673-8.097-6.25h8.097m-94.156 6.25c5.274.239 9.022-2.547 9.022-6.247H1.463"
      stroke="#FFF3A6"></path>
  </symbol>
  <symbol viewBox="0 0 101 98" xmlns="http://www.w3.org/2000/svg" id="playground">
    <path stroke="#FFF3A6" stroke-width="1.5" d="M8.27 39.765h31.92V96.75H8.27zm15.76-21.79a.25.25 0 0 1 .4 0l15.366 20.517a.25.25 0 0 1-.2.4H8.862a.25.25 0 0 1-.2-.4l15.367-20.517z"></path>
    <path d="M24.23 17.71V1" stroke="#FFF3A6" stroke-width="1.5" stroke-linecap="round" stroke-linejoin="round"></path>
    <path stroke="#FFF3A6" stroke-width="1.5" stroke-linecap="round" d="M24.98 4.01h12.703M24.98 10.694h12.703m-.086-6.352l-5.013 3.342m4.972 2.995l-4.894-2.601"></path>
    <path stroke="#FFF3A6" stroke-width="1.5" d="M7.52 70.014h32.584"></path>
    <circle cx="24.229" cy="55.725" r="11.783" stroke="#FFF3A6" stroke-width="1.5"></circle>
    <path stroke="#FFF3A6" stroke-width="1.5" d="M15.789 69.928v26.736m17.545-25.9V97.5"></path>
    <path stroke="#FFF3A6" d="M15.874 75.277h16.71m-16.71 5.013h16.71m-16.71 5.013h16.71m-16.71 5.013h16.71"></path>
    <path d="M40.854 48.12h4.44a3.25 3.25 0 0 1 3.25 3.25v9.454h-7.69V48.12zm8.023 13.036l39.268 35.926h11.697v-7.52h-7.937L48.876 51.13" stroke="#FFF3A6" stroke-width="1.5"></path>
    <path stroke="#FFF3A6" stroke-width="1.5" stroke-linecap="round" stroke-linejoin="round" d="M.75 96.75h79.543"></path>
  </symbol>
  <symbol viewBox="0 0 97 78" xmlns="http://www.w3.org/2000/svg" id="marketplace">
    <path stroke="#FFF3A6" stroke-width="1.5" stroke-linecap="round" d="M.75 1.25h8.534"></path>
    <path transform="rotate(78.793 4.226 6.386) skewX(-.074)" stroke="#FFF3A6" stroke-width="1.5" stroke-linecap="round" d="M.75-.75h64.355"></path>
    <path stroke="#FFF3A6" stroke-width="1.5" stroke-linecap="round" d="M22.825 65.25h61.713m-62.717-10h65.728m-70.745-24h74.758m-76.765-14h80.779"></path>
    <path transform="rotate(-78.964 78.615 -25.537) skewX(.073)" stroke="#FFF3A6" stroke-width="1.5" stroke-linecap="round" d="M.75-.75h38.696"></path>
    <path transform="rotate(79.01 -2.51 34.901) skewX(-.072)" stroke="#FFF3A6" stroke-width="1.5" d="M0-.75h25.358"></path>
    <path transform="rotate(99.08 24.999 47.783) skewX(.06)" stroke="#FFF3A6" stroke-width="1.5" d="M0-.75h25.358"></path>
    <path stroke="#FFF3A6" stroke-width="1.5" d="M55.937 31v25"></path>
    <path d="M39.136 72c0 2.758-2.245 5-5.02 5-2.776 0-5.02-2.242-5.02-5s2.244-5 5.02-5c2.775 0 5.02 2.242 5.02 5zm39.132 0c0 2.758-2.245 5-5.02 5-2.776 0-5.02-2.242-5.02-5s2.244-5 5.02-5c2.775 0 5.02 2.242 5.02 5z" stroke="#FFF3A6" stroke-width="2"></path>
  </symbol>
  <symbol viewBox="0 0 84 102" xmlns="http://www.w3.org/2000/svg" id="beach">
    <path d="M4.53 38.819c7.925-38.272 61.823-38.725 69.75 0" stroke="#FFF3A6" stroke-width="1.5"></path>
    <path stroke="#FFF3A6" stroke-width="1.5" stroke-linecap="round" d="M5.279 38.069H73.53"></path>
    <path stroke="#FFF3A6" stroke-width="2" stroke-linecap="round" d="M40.41 1.994l.589 99M1.007 85.609l68.656.48m12.206-23.053L70.095 86.165m-15.307-9.182l-4.172 8.195m-33.122 1.335L10.78 98.361m57.147-12.33l5.875 11.358m.386-20.988h-18.84"></path>
  </symbol>
  <symbol viewBox="0 0 116 98" xmlns="http://www.w3.org/2000/svg" id="resort">
    <path d="M40.107 23.913a1.25 1.25 0 0 1 1.794 0l30.786 31.75c.769.792.207 2.12-.897 2.12H10.219c-1.105 0-1.667-1.328-.898-2.12l30.786-31.75z" stroke="#FFF3A6" stroke-width="1.5"></path>
    <circle cx="41.004" cy="41.004" r="5.823" stroke="#FFF3A6" stroke-width="1.5"></circle>
    <path stroke="#FFF3A6" stroke-width="1.5" d="M11.393 58.343h59.224v38.565H11.393z"></path>
    <rect x="22.034" y="77.75" width="12.898" height="19.159" rx="1.25" stroke="#FFF3A6" stroke-width="1.5"></rect>
    <path stroke="#FFF3A6" stroke-width="1.5" d="M45.823 75.872h16.029v9.768H45.823z"></path>
    <circle cx="64.167" cy="13.459" r="8.327" stroke="#FFF3A6" stroke-width="1.5"></circle>
    <path stroke="#FFF3A6" stroke-width="2" stroke-linecap="round" d="M71.992 5.472l1.09-1.09M54.464 22.374l1.09-1.089m7.926 5.152v-1.541m0-22.355V1m-8.487 5.16l-1.145-1.031m18.738 17.973l-1.146-1.031m5.769-7.992h-1.541m-23.672.067h-1.541"></path>
    <path d="M13.896 26.667a.25.25 0 0 1 .25-.25H25.92a.25.25 0 0 1 .25.25v10.8a.25.25 0 0 1-.071.174l-11.773 12.04a.25.25 0 0 1-.428-.175v-22.84z" stroke="#FFF3A6" stroke-width="1.5"></path>
    <path stroke="#FFF3A6" stroke-width="1.5" stroke-linecap="round" d="M23.286 2.002v11.647m-5.008-6.013v11.647"></path>
    <path d="M94.841 24.415L82.947 49.142h4.382l-8.764 11.269h6.886L74.809 72.93H115.5l-10.017-12.52h5.948l-8.139-11.269h3.443L94.841 24.415z" stroke="#FFF3A6" stroke-linecap="round" stroke-linejoin="round"></path>
    <path stroke="#FFF3A6" stroke-width="2" d="M95.528 73.244v20.658"></path>
    <path stroke="#FFF3A6" stroke-width="1.5" stroke-linecap="round" d="M5.131 97.222h105.55"></path>
  </symbol>



   <symbol viewBox="0 0 100 89" xmlns="http://www.w3.org/2000/svg" id="layout">
    <path d="M92.394 68.5H98.5V1H1v67.5h54.858M39.75 7.25v55m0-27.5H7.25" stroke="#fff" stroke-width="2" stroke-linecap="round" stroke-linejoin="round"></path>
    <path fill-rule="evenodd" clip-rule="evenodd" d="M73.197 70.454L86 67.924 60.923 47.25l2.978 32.364 9.296-9.16z" stroke="#fff" stroke-width="2" stroke-linecap="round" stroke-linejoin="round"></path>
    <path d="M73.197 70.454l8.767 16.573" stroke="#fff" stroke-width="2" stroke-linecap="round" stroke-linejoin="round"></path>
  </symbol>


  <symbol viewBox="0 0 56 56"  xmlns="http://www.w3.org/2000/svg" id="menu icon">
    <path stroke="#fff" stroke-width="2" stroke-linecap="round" stroke-linejoin="round" d="M14 15h18M14 26h23M14 37h33"></path>
  </symbol>
  





   <symbol viewBox="0 0 91 106"  xmlns="http://www.w3.org/2000/svg" id="door">
    <path stroke="#FFF3A6" stroke-width="1.5" d="M15.75 8.75h58.5v88.5h-58.5zM0 97.25h91"></path>
    <path d="M25.75 95.221V10.78L65.25.96v104.082l-39.5-9.82z" fill="#423C3A" stroke="#FFF3A6" stroke-width="1.5"></path>
    <path d="M56 47c-1.43 4.251-1.495 6.651 0 11" stroke="#FFF3A6"></path>
  </symbol>
  <symbol viewBox="0 0 89 73"  xmlns="http://www.w3.org/2000/svg" id="wall">
    <path d="M1.03 21.31v48.617s-.208 1.483.89 1.75c.296.089 63.448 0 63.448 0s1.305-.208 1.157-1.453c-.149-1.217 0-17.917 0-17.917s-.178-1.483-1.691-1.66c-1.513-.179-11.153-.12-11.153-.12v-8.512s.059-1.572-1.75-1.81c-1.81-.237-12.28-.089-12.28-.089l-.09-8.157s-.148-.95-1.245-.92c-1.098.03-11.272.12-11.272.12l.03-9.107s.148-1.661-1.395-1.691c-1.542-.03-22.75 0-22.75 0s-1.543-.267-1.9.95z"
      stroke="#FFF3A6" stroke-width="1.5" stroke-miterlimit="10"></path>
    <path d="M14.081 30.862v9.491l12.785-.118 12.754-.119M1.03 31.247l25.984-.089M1.03 39.968l13.05.385m12.785-.118v10.649M1 50.884l52.68-.327M1.03 61.71h65.435M53.68 71.707V61.71m-26.815 0v9.997M39.62 50.884V61.71m32.6-13.318v20.29s-.06 2.165 1.334 2.49c1.187.268 4.212.179 5.636.15.653-.06 1.365-.713 1.632-2.166.267-1.454.267-19.666-.06-20.764-.296-1.098-1.186-1.453-1.186-1.453h-6.318s-1.038.652-1.038 1.453zm2.521-9.611S64.3 37.21 64.3 28.815C64.3 18.967 75.66 2 75.66 2S88 17.247 88 28.785c0 6.318-3.826 9.61-9.373 9.967"
      stroke="#FFF3A6" stroke-width="1.5" stroke-miterlimit="10"></path>
    <path d="M74.86 46.939V33.086c0-.504.296-1.987 1.78-1.987 1.63 0 1.927.92 2.046 2.254.06.801 0 13.586 0 13.586M72.22 68.681s-.06 2.195 1.334 2.492c1.098.237 4.212.178 5.636.148" stroke="#FFF3A6" stroke-width="1.5" stroke-miterlimit="10"></path>
  </symbol>
  <symbol viewBox="0 0 70 70"  xmlns="http://www.w3.org/2000/svg" id="stairs">
    <path d="M1 69v-8.486s0-1.309 1.708-1.144c1.709.166 8.9-.013 8.9-.013s1.308.013 1.391-.882c.083-.896 0-7.508 0-7.508s.413-1.226 1.474-1.392c1.061-.165 9.382 0 9.382 0s1.143-.165 1.226-.978c.083-.813 0-7.177 0-7.177s.083-1.144 1.06-1.226c.979-.083 9.12 0 9.12 0s1.571.73 1.737-.896c.165-1.64 0-7.673 0-7.673s-.124-1.061 1.033-1.061h8.679s1.143.165 1.226-1.226c.083-1.392 0-6.86 0-6.86s-.165-1.64.813-1.557c.978.082 9.313 0 9.313 0s1.556.248 1.708-1.144c.165-1.391 0-6.86 0-6.86s.165-1.64 1.64-1.557c1.473.083 7.838 0 7.838 0V69H1zm4.16-26.368L56.105 1h13.143M9.238 59.398v-20.1m12.11-9.891v20.127m11.93-9.354V19.653m10.966-8.968V30.55M56.105 1v19.934"
      stroke="#FFF3A6" stroke-width="1.5" stroke-miterlimit="10"></path>
  </symbol>
  <symbol viewBox="0 0 58 24"  xmlns="http://www.w3.org/2000/svg" id="eye">
    <path d="M23.445 1.232C14.97 2.589 7.603 6.3.79 11.646c1.523 1.08 2.88 2.201 4.39 3.074 2.645 1.537 5.373 2.922 8.06 4.39.193.11.318.373.47.553-.25.042-.526.166-.72.083A54.286 54.286 0 0 1 .36 12.13c-.512-.415-.456-.678.028-1.066a54.225 54.225 0 0 1 13.197-7.866C17.116 1.731 20.758.706 24.553.248c5.096-.609 10.08-.082 14.97 1.4 6.383 1.952 12.13 5.095 17.336 9.25.873.692.873.72.014 1.398-6.079 4.82-12.809 8.337-20.411 10.054-2.978.665-5.996 1.08-9.057.803-5.013-.457-9.444-4.694-10.15-9.693-.72-5.083 1.495-9.555 5.968-12.076.083-.041.153-.11.222-.152zm10.58 0c.152.097.304.194.456.277 4.806 2.728 7.118 8.71 5.276 13.75-.083.208-.373.347-.567.513-.028-.235-.139-.512-.083-.72.567-1.91.706-3.836.277-5.802C38.026 2.99 31.297-.831 25.3 1.26c-5.608 1.952-8.571 7.56-7.076 13.335 1.108 4.251 5.29 7.658 9.666 7.88 3.185.152 6.315-.264 9.389-1.04 6.453-1.62 12.283-4.583 17.628-8.502.568-.415 1.094-.858 1.703-1.329-6.77-5.318-14.124-9.029-22.585-10.372z"
      fill="#423C3A"></path>
    <path d="M33.32 12.185c-.042 1.274-.845 2.645-2.451 3.49-1.606.845-3.199.706-4.722-.25-.194-.124-.402-.262-.512-.442-.084-.111-.056-.36.013-.485.042-.07.291-.07.43-.014.138.056.249.194.387.291 1.704 1.19 3.905.928 5.235-.623 1.33-1.551 1.232-3.822-.194-5.276-1.413-1.426-3.684-1.523-5.276-.222-.083.07-.166.194-.263.208-.166.042-.36.028-.54.042.014-.18-.028-.471.055-.527.706-.443 1.413-1.024 2.188-1.232 2.936-.748 5.664 1.482 5.65 5.04z"
      fill="#423C3A"></path>
  </symbol>
  <symbol viewBox="0 0 62 67"  xmlns="http://www.w3.org/2000/svg" id="newspaper">
    <path d="M0 .019h1.114c13.829 0 27.658 0 41.488-.019.686 0 1.15.223 1.614.687a938.515 938.515 0 0 0 8.725 8.464c.501.483.668.947.668 1.615-.018 16.558-.018 33.098 0 49.656 0 .5-.018 1.002.093 1.485.353 1.763 1.763 2.877 3.508 2.821 1.857-.055 3.1-1.188 3.379-3.044a8.58 8.58 0 0 0 .093-1.207V33.005c0-1.318 0-1.318-1.318-1.318-.873 0-1.727.037-2.6-.038-.203-.018-.538-.39-.538-.594 0-.222.335-.63.52-.63 1.69-.056 3.397-.038 5.216-.038v1.17c0 9.652-.074 19.305.037 28.957.038 3.1-2.041 5.662-5.773 5.68-12.715.02-25.43 0-38.146 0H4.715c-2.859 0-4.696-1.837-4.696-4.696V1.095A17.788 17.788 0 0 1 0 .02zm1.374 1.447v56.227c0 1.43-.019 2.84.018 4.27.037 1.837 1.077 2.84 2.915 2.84h48.615c.26 0 .502-.038.984-.093-1.503-1.355-1.633-2.952-1.633-4.641.037-6.72.018-13.42.018-20.14V13.011c0-1.206 0-1.206-1.225-1.206H43.92c-.334 0-.65-.019-1.076-.037V1.466H1.373zm50.657 9.078c.019-.093.056-.186.075-.279a13280.48 13280.48 0 0 1-7.852-7.63c-.056.465-.093.67-.093.873 0 2.042.018 4.084-.019 6.107-.018.743.279.947.984.947 1.856-.037 3.713 0 5.55 0 .464-.018.91-.018 1.355-.018z"
      fill="#fff"></path>
    <path d="M43.362 45.033v1.244H9.17v-1.244h34.192zM9.133 31.612v-1.15c.353-.02.687-.056 1.02-.056h32.17c1.15 0 1.15 0 1.002 1.225-11.36-.019-22.739-.019-34.192-.019zm25.783 6.145c.242 1.169.205 1.243-.872 1.243H10.098c-.297 0-.594-.037-.947-.055v-1.188h25.765zM9.151 53.535V52.42H35.01v1.114H9.151zm16.967-37.051c.482-1.355.946-2.73 1.466-4.066.111-.297.427-.5.668-.742.223.241.539.464.65.742.538 1.337 1.021 2.692 1.726 4.084.427-1.3.928-2.58 1.281-3.88.242-.909.706-1.15 1.652-.798l-.78 2.117c-.5 1.317-.983 2.654-1.521 3.972-.093.241-.446.557-.669.538-.278-.018-.687-.26-.798-.5-.538-1.207-.984-2.451-1.54-3.862-.52 1.337-.966 2.506-1.411 3.676-.149.408-.316.91-.873.705-.297-.111-.631-.409-.742-.724-.799-1.968-1.56-3.954-2.34-5.977.91-.26 1.449-.112 1.709.835.37 1.318.872 2.599 1.317 3.898.075 0 .13 0 .205-.018zm-15.63-2.45v4.399H9.3v-6.961c.557.297 1.076.408 1.355.724 1.058 1.17 2.023 2.394 3.23 3.824v-4.325h1.188v6.924c-.427-.242-.817-.372-1.04-.632-1.132-1.336-2.227-2.691-3.341-4.046a.685.685 0 0 1-.204.092zm7.406.464h3.861v1.076c-1.058 0-2.097.019-3.155-.018-.65-.019-.854.26-.854.872 0 .594.13.928.816.872.799-.055 1.615.038 2.413-.018.891-.056 1.096.316.817 1.15h-5.16v-6.756c1.633 0 3.248-.019 4.863.037.167 0 .334.538.613 1.021h-2.97c-1.522.019-1.522.037-1.244 1.764zm16.503 2.542c.297-.148.593-.296.89-.463.873 1.02 1.968 1.317 3.175.835.315-.13.65-.594.668-.928.018-.279-.371-.724-.668-.836-.687-.241-1.448-.315-2.154-.482-1.132-.279-1.633-.854-1.614-1.82 0-.928.556-1.54 1.652-1.819 1.633-.408 3.007-.018 3.73 1.114-.445.39-.816.594-1.41.13-.668-.52-1.522-.557-2.265-.13-.26.149-.52.539-.5.798.018.242.352.594.63.669.613.204 1.263.278 1.894.39 1.299.24 1.986.872 2.004 1.911.038 1.133-.594 1.82-1.912 2.098-1.986.445-3.415-.056-4.12-1.466zm6.125 20.698h2.692c.37 1.095.26 1.262-.836 1.262-.52 0-1.04-.018-1.559-.018-.093 0-.167-.056-.316-.093.019-.353.019-.706.019-1.151zM19.49 23.073h1.987c-.093.465-.056 1.114-.279 1.226-.39.204-1.02.204-1.392 0-.241-.112-.223-.743-.315-1.226zm-10.32.019h1.652v1.28H9.17v-1.28zm5.198-.019h1.596c.557 1.615-.186 1.43-1.596 1.226v-1.226zm12.232.037v1.19c-1.707.352-1.893.222-1.707-1.188H26.6zm5.216 0v1.244h-1.708v-1.243h1.708zm5.18 1.263h-1.652V23.11h1.652v1.262zm3.527-1.3h1.67v1.263h-1.67v-1.262z"
      fill="#fff"></path>
  </symbol>



  <symbol viewBox="0 0 75 93"  xmlns="http://www.w3.org/2000/svg" id="area">
    <path stroke="#FFF3A6" stroke-width="1.5" d="M14.75 3.75h58.5v88.5h-58.5z"></path>
    <path stroke="#FFF3A6" stroke-width="1.5" d="M14.75 58.75h17.5v33.5h-17.5zm42.298 33.276C57.048 80.5 65 74.5 73.71 74.242M39.75 1v5m3-6v7"></path>
    <path d="M3.646 92.354a.5.5 0 0 0 .708 0l3.182-3.182a.5.5 0 1 0-.708-.707L4 91.293l-2.828-2.829a.5.5 0 1 0-.708.708l3.182 3.182zM3.5 37v55h1V37h-1z" fill="#FFF3A6"></path>
    <path d="M4.354 2.646a.5.5 0 0 0-.708 0L.464 5.828a.5.5 0 1 0 .708.708L4 3.707l2.828 2.829a.5.5 0 1 0 .708-.708L4.354 2.646zM4.5 58V3h-1v55h1z" fill="#FFF3A6"></path>
  </symbol>
  <symbol viewBox="0 0 71 101"  xmlns="http://www.w3.org/2000/svg" id="heating">
    <rect x=".5" y="31.5" width="6.368" height="69" rx="3.184" stroke="#FFF3A6"></rect>
    <rect x="12.474" y="31.5" width="6.368" height="69" rx="3.184" stroke="#FFF3A6"></rect>
    <rect x="24.447" y="31.5" width="6.368" height="69" rx="3.184" stroke="#FFF3A6"></rect>
    <rect x="36.421" y="31.5" width="6.368" height="69" rx="3.184" stroke="#FFF3A6"></rect>
    <rect x="48.395" y="31.5" width="6.368" height="69" rx="3.184" stroke="#FFF3A6"></rect>
    <rect x="60.369" y="31.5" width="6.368" height="69" rx="3.184" stroke="#FFF3A6"></rect>
    <path stroke="#FFF3A6" d="M7.369 40.631h4.605M7.369 89.447h4.605m7.368-48.816h4.606m7.368 0h4.605m7.369 0h4.605m7.368 0h4.605M19.342 89.447h4.606m7.368 0h4.605m7.369 0h4.605m7.368 0h4.605m6.948-48.707a4.106 4.106 0 0 1 3.605 4.076v2.763a4.106 4.106 0 0 1-3.605 4.075V40.741z"></path>
    <path d="M24.595 23.702a.5.5 0 1 0 .802.596l-.802-.596zm.811-22.416a.5.5 0 1 0-.82-.572l.82.572zm-.009 23.012c1.8-2.418 2.281-4.525 2.049-6.486-.229-1.923-1.143-3.657-2-5.309-.873-1.683-1.692-3.293-1.897-5.081-.202-1.757.187-3.736 1.857-6.136l-.82-.572c-1.79 2.573-2.264 4.79-2.03 6.822.229 2 1.143 3.77 2.002 5.427.876 1.689 1.692 3.258 1.895 4.967.198 1.672-.19 3.528-1.858 5.772l.802.596zm7.732-.638a.5.5 0 0 0 .732.68l-.732-.68zm.743-22.332a.5.5 0 0 0-.754-.656l.754.656zm-.01 23.012c2.243-2.413 2.866-4.54 2.569-6.542-.288-1.945-1.442-3.69-2.509-5.337-1.094-1.688-2.108-3.287-2.362-5.053-.247-1.718.222-3.676 2.312-6.08l-.754-.656c-2.235 2.57-2.845 4.808-2.548 6.878.29 2.021 1.442 3.803 2.513 5.455 1.098 1.695 2.108 3.251 2.359 4.94.242 1.63-.222 3.465-2.313 5.715l.732.68zm7.267-.68a.5.5 0 0 0 .732.68l-.732-.68zm.743-22.332a.5.5 0 0 0-.754-.656l.754.656zm-.01 23.012c2.243-2.413 2.866-4.54 2.569-6.542-.288-1.945-1.442-3.69-2.509-5.337-1.094-1.688-2.108-3.287-2.362-5.053-.247-1.718.221-3.676 2.312-6.08l-.754-.656c-2.235 2.57-2.845 4.808-2.548 6.878.29 2.021 1.442 3.803 2.513 5.455 1.098 1.695 2.108 3.251 2.359 4.94.242 1.63-.222 3.465-2.313 5.715l.732.68z"
      fill="#FFF3A6"></path>
  </symbol>
  <symbol viewBox="0 0 60 90"  xmlns="http://www.w3.org/2000/svg" id="window">
    <path stroke="#FFF3A6" stroke-width="2.5" d="M1.25 1.25h57.5v87.5H1.25z"></path>
    <path stroke="#FFF3A6" stroke-width="1.5" d="M30.75 1v89"></path>
    <path stroke="#FFF3A6" d="M1 30.5h58"></path>
  </symbol>
  <symbol viewBox="0 0 83 100"  xmlns="http://www.w3.org/2000/svg" id="building">
    <path stroke="#FFF3A6" stroke-width="1.5" d="M.75.75h58.5v98.5H.75z"></path>
    <path stroke="#FFF3A6" stroke-width="1.5" d="M21.75 75.75h16.5v23.5h-16.5zm8 .25v23m-17-84.25h8.5v8.5h-8.5zm0 15h8.5v8.5h-8.5zm0 15h8.5v8.5h-8.5zm25-30h8.5v8.5h-8.5zm0 15h8.5v8.5h-8.5zm0 15h8.5v8.5h-8.5z"></path>
    <path d="M59.5 23.5H73a9.5 9.5 0 0 1 9.5 9.5v66.5h-23v-76z" stroke="#FFF3A6"></path>
    <path stroke="#FFF3A6" d="M66.5 34.5h9v24h-9zm-6.5 41h22m-22 7h22m-22 7h22"></path>
  </symbol>
  <symbol viewBox="0 0 82 95"  xmlns="http://www.w3.org/2000/svg" id="safety">
    <path d="M80.54 15.082C76.675 10.705 72.827 6.345 68.996 2c-9.267 6.83-18.469 7.359-27.703.016-9.186 7.439-18.42 6.733-27.703.032C9.743 6.408 5.896 10.77 2 15.178c.208.176.369.305.529.449a14.17 14.17 0 0 1 4.264 6.653c1.267 4.168.914 8.288-.448 12.345-1.572 4.68-3.078 9.362-3.511 14.332C2.176 56.7 3.812 63.85 8.06 70.39c3.832 5.916 9.042 10.421 14.845 14.285 5.66 3.783 11.784 6.669 18.052 9.266.224.096.577.064.818-.032 5.659-2.373 11.206-4.986 16.416-8.272 5.723-3.624 10.934-7.84 15.006-13.323 4.409-5.932 6.701-12.569 6.717-19.975.016-4.57-.85-9.026-2.212-13.37-1.026-3.223-2.357-6.35-2.597-9.796-.305-4.329.513-8.337 3.302-11.8.657-.785 1.395-1.507 2.132-2.292z"
      stroke="#FFF3A6" stroke-width="1.5" stroke-miterlimit="10"></path>
    <path d="M17.583 48.123l7.23-7.23c3.175 3.19 6.397 6.413 9.667 9.715l23.134-23.133 7.215 7.262c-.097.096-.29.32-.481.513-8.61 8.609-17.218 17.234-25.844 25.843-2.5 2.501-5.482 2.501-7.967.016L18.128 48.701a17.09 17.09 0 0 1-.545-.578z" stroke="#FFF3A6"
      stroke-width="1.5" stroke-miterlimit="10"></path>
  </symbol>


   <symbol viewBox="0 0 252 202"  xmlns="http://www.w3.org/2000/svg" id="logo-head">
    <path d="M173.113 46.254c-15.742-12.66-31.431-25.372-47.281-38.14-16.013 13.038-32.026 25.968-47.985 38.951-.108-.108-.217-.216-.27-.324A36861.756 36861.756 0 0 0 125.831 0c15.904 15.364 31.701 30.674 47.552 45.983-.108.109-.217.163-.271.27z" fill="#fff"></path>
    <path d="M125.832 24.507c-16.122 12.172-32.08 24.235-48.04 36.245-.108-.108-.162-.216-.27-.324 16.067-14.607 32.188-29.213 48.31-43.874 15.904 14.444 31.755 28.834 47.552 43.17-.054.109-.163.163-.217.27-15.742-11.792-31.485-23.64-47.335-35.487z"
      ></path>
    <path d="M77.522 74.06c16.013-13.633 32.08-27.211 48.31-41.006 15.958 13.524 31.917 27.103 47.876 40.627-.054.109-.108.163-.216.27a78686.555 78686.555 0 0 1-47.66-33.053 60334.691 60334.691 0 0 0-47.985 33.487l-.325-.325z" fill="#fff"></path>
    <path d="M77.522 87.693a37121.69 37121.69 0 0 1 48.31-38.14c16.013 12.605 31.917 25.21 47.822 37.761-.054.108-.108.162-.162.27-2.543-1.568-5.085-3.191-7.628-4.76-12.983-8.277-25.967-16.5-38.951-24.831-1.244-.812-1.893-.162-2.759.379-13.849 8.872-27.644 17.744-41.493 26.616-1.623 1.028-3.246 2.056-4.868 3.138-.055-.217-.163-.325-.271-.433z"
      ></path>
    <path d="M172.789 100.839c-7.412-4.328-14.877-8.602-22.289-12.93-7.736-4.49-15.472-8.926-23.154-13.47-1.19-.703-2.001-.595-3.137.054a12216.589 12216.589 0 0 1-44.902 26.238c-.54.324-1.082.595-1.785.595 4.111-3.03 8.169-6.005 12.28-9.035 11.361-8.277 22.721-16.554 34.028-24.885 1.461-1.082 2.434-1.19 3.949-.054 14.769 10.874 29.538 21.64 44.36 32.459.325.216.595.487.866.703-.054.163-.162.271-.216.325z"
      ></path>
    <path d="M77.576 114.958c7.466-5.031 14.931-10.008 22.397-15.04l24.668-16.553c.758-.541 1.299-.757 2.218-.162l46.092 30.998c.162.108.27.27.27.595-4.598-2.435-9.196-4.815-13.795-7.249a9051.886 9051.886 0 0 1-31.971-16.77c-1.137-.596-2.056-.596-3.192 0-14.769 7.844-29.592 15.634-44.415 23.478-.649.379-1.352.703-2.055 1.028-.055-.108-.163-.217-.217-.325z"
     ></path>
    <path d="M76.981 129.024l13.958-8.602c10.982-6.708 21.964-13.416 32.891-20.179 1.461-.92 2.489-.92 4.004 0 14.714 9.089 29.429 18.069 44.144 27.104.486.27.919.595 1.244 1.136l-13.633-6.33a8579.022 8579.022 0 0 1-32.134-15.039c-1.136-.541-2.056-.541-3.246 0a17413.735 17413.735 0 0 1-45.605 21.477c-.486.216-1.028.433-1.514.649a.41.41 0 0 1-.109-.216z"
      ></path>
    <path d="M173.06 142.116c-8.44-3.463-16.825-6.871-25.264-10.333-6.817-2.813-13.633-5.626-20.449-8.331-.866-.379-2.164-.325-3.03 0-15.201 6.221-30.349 12.496-45.496 18.772-.595.216-1.136.433-1.84.433l22.56-12.497c8.276-4.544 16.553-9.088 24.776-13.741 1.082-.595 1.84-.649 2.976-.054 14.985 8.331 30.024 16.608 45.009 24.885.325.162.649.379.974.595-.054.108-.162.162-.216.271z"
      ></path>
    <path d="M76.981 156.181c6.168-3.029 12.28-6.005 18.448-9.034 9.738-4.815 19.475-9.63 29.213-14.336.649-.325 1.623-.379 2.218-.109 15.364 7.52 30.727 15.094 46.091 22.668.271.162.541.324.758.649-3.787-1.353-7.574-2.651-11.415-4.004-11.577-4.057-23.1-8.222-34.677-12.226-1.136-.378-2.705-.324-3.841.054-15.418 5.41-30.727 10.928-46.091 16.446-.163.054-.379.054-.541.108-.054 0-.109-.108-.163-.216z"
      ></path>
    <path d="M77.036 169.814c8.655-3.733 17.257-7.52 25.913-11.253 7.086-3.083 14.173-6.221 21.314-9.196.866-.379 2.056-.433 2.867-.054 15.094 6.437 30.133 12.983 45.172 19.529.163.054.325.216.379.595-2.921-.865-5.897-1.731-8.818-2.597-12.172-3.57-24.344-7.195-36.57-10.711a5.568 5.568 0 0 0-2.976 0c-15.526 4.598-30.998 9.251-46.524 13.849-.216.054-.487.108-.703.216 0-.162-.054-.27-.054-.378zm-.488 13.849c5.193-1.948 9.954-3.787 14.715-5.572 11.036-4.166 22.126-8.277 33.162-12.389.703-.27 1.677-.378 2.38-.108 15.418 5.735 30.836 11.469 46.254 17.257.162.055.324.217.865.596a1829 1829 0 0 1-15.634-3.733c-10.387-2.489-20.828-5.031-31.215-7.466-.865-.216-1.839-.162-2.65.054-15.635 3.787-31.215 7.574-46.795 11.361h-1.082zM179.66 75.9c-.704-2.76.162-4.437 2.326-6.06 6.87-5.193 13.578-10.603 20.503-16.12 16.121 12.766 32.296 25.48 48.472 38.246a1.137 1.137 0 0 1-.217.325c-.487-.325-1.028-.595-1.514-.92A12533.34 12533.34 0 0 1 204.653 62.7c-1.569-1.028-2.651-1.083-4.274-.055-6.221 4.112-12.551 8.061-18.826 12.064-.595.433-1.19.758-1.893 1.19z"
      ></path>
    <path d="M78.225 196.7c5.14-1.623 10.279-3.246 15.472-4.869 10.225-3.191 20.395-6.437 30.62-9.575.865-.27 1.947-.379 2.813-.108 15.147 4.706 30.295 9.467 45.388 14.228.379.108.703.324.974.649-6.005-1.082-12.01-2.218-18.069-3.3-9.521-1.731-18.988-3.733-28.564-5.085-2.921-.433-6.113.649-9.142 1.244-12.822 2.326-25.643 4.761-38.464 7.141-.325.054-.65 0-.974 0 0-.108-.054-.217-.054-.325zM202.543 70.327c16.121 11.794 32.242 23.533 48.364 35.326-.055.108-.163.217-.217.325-2.705-1.569-5.356-3.138-8.061-4.707a7214.933 7214.933 0 0 1-38.734-22.667c-1.082-.649-1.893-.649-2.975 0a3830.697 3830.697 0 0 1-20.125 11.74c-.378.216-.757.378-1.19.595-.703-2.597 0-4.22 2.218-5.735 6.546-4.544 12.876-9.359 19.313-14.065.487-.27.92-.487 1.407-.812z"
      ></path>
    <path d="M179.659 106.086c-.649-2.488-.108-4.057 2.164-5.518 6.546-4.165 12.929-8.602 19.367-12.93.811-.54 1.406-.865 2.38-.162 15.58 10.55 31.269 20.99 46.903 31.485.162.109.325.217.271.65-.974-.541-2.002-1.028-2.976-1.569-14.498-7.682-29.05-15.31-43.549-22.992-1.19-.65-2.11-.703-3.354 0-6.437 3.462-12.929 6.816-19.421 10.17-.595.325-1.19.541-1.785.866z"
      ></path>
    <path d="M251.285 133.568c-8.439-3.949-16.824-7.898-25.264-11.847-7.357-3.463-14.768-6.871-22.126-10.441-1.136-.541-2.001-.433-3.029.054-6.492 3.084-12.984 6.059-19.475 9.088-.541.217-1.028.433-1.569.704-.812-2.976-.595-3.571 1.785-5.031a3767.925 3767.925 0 0 1 19.529-11.956c.758-.433 1.353-.92 2.381-.271a13832.696 13832.696 0 0 0 47.335 28.997c.217.108.433.325.596.487a.729.729 0 0 0-.163.216zm-179.227-12.28c-4.003-1.894-8.006-3.733-11.955-5.572-2.922-1.353-5.897-2.651-8.764-4.112-1.136-.595-2.056-.595-3.246 0-15.31 7.249-30.62 14.444-45.93 21.639-.432.217-.919.433-1.514.379 1.19-.757 2.38-1.515 3.57-2.218 14.499-8.872 29.051-17.744 43.55-26.67 1.46-.92 2.488-.92 3.948 0 5.897 3.732 11.848 7.465 17.907 10.928 2.218 1.298 3.3 2.758 2.434 5.626z"
      ></path>
    <path d="M179.606 136.273c-.433-3.624-.433-3.624 2.489-5.193 6.329-3.463 12.658-7.033 19.042-10.441.649-.379 1.839-.487 2.434-.108a12781.95 12781.95 0 0 1 46.849 25.913c.109.054.163.162.704.649a124.655 124.655 0 0 1-3.787-1.461c-14.444-5.951-28.889-11.956-43.333-17.906-.865-.379-2.164-.379-3.029 0-6.546 2.542-13.038 5.247-19.584 7.898-.541.216-1.136.433-1.785.649zM.378 147.309c6.33-3.517 12.605-7.033 18.934-10.495 9.684-5.356 19.367-10.658 28.997-16.067.974-.541 1.677-.541 2.597 0 6.275 3.516 12.55 6.978 18.826 10.44 2.813 1.569 2.813 1.569 2.272 5.14a298.47 298.47 0 0 1-7.358-2.976c-4.544-1.839-9.034-3.786-13.632-5.572-.866-.324-2.056-.324-2.867 0a16663.064 16663.064 0 0 0-46.2 19.043c-.487.216-1.028.433-1.57.649.055 0 .055-.054 0-.162z"
      ></path>
    <path d="M179.66 151.42c-.487-3.57-.487-3.57 2.597-5.085 6.329-3.137 12.604-6.275 18.934-9.359.649-.324 1.677-.433 2.272-.162 15.851 7.736 31.647 15.58 47.498 23.37.162.108.325.217.379.541-2.651-.919-5.356-1.839-8.007-2.813-13.146-4.706-26.237-9.413-39.383-14.011-.866-.325-2.056-.325-2.921 0-7.141 2.434-14.282 4.977-21.369 7.519zM.324 160.942c7.357-3.625 14.714-7.304 22.072-10.928 8.601-4.22 17.149-8.493 25.75-12.659.704-.325 1.84-.541 2.489-.216 7.249 3.462 14.39 7.032 21.585 10.549v3.841a142.106 142.106 0 0 1-4.544-1.623c-5.464-1.948-10.928-3.895-16.446-5.735-.92-.324-2.164-.324-3.084 0-15.85 5.627-31.701 11.307-47.552 16.933-.108 0-.162-.108-.27-.162z"
      ></path>
    <path d="M250.582 174.142c-4.219-1.245-8.493-2.543-12.713-3.787-11.252-3.354-22.45-6.763-33.757-10.063-1.028-.324-2.272-.27-3.354 0-6.6 1.84-13.092 3.841-19.692 5.789-.486.162-1.027.216-1.568.325-.055-.325-.055-.541-.109-.812-.432-2.164.541-3.138 2.543-3.949 6.384-2.597 12.659-5.464 19.042-8.115.812-.324 2.056-.378 2.868 0 15.309 6.546 30.565 13.2 45.875 19.854.324.162.649.325.919.541 0 .054 0 .108-.054.217zM0 174.682c8.115-3.516 15.797-6.87 23.479-10.224a4785.687 4785.687 0 0 0 24.344-10.603c1.244-.541 2.272-.595 3.624-.054 5.951 2.705 11.956 5.247 17.907 7.844 3.083 1.352 3.083 1.352 2.759 5.031-5.14-1.515-10.333-2.813-15.31-4.653-4.923-1.839-9.359-1.568-14.336.055-13.795 4.49-27.752 8.439-41.656 12.604H0zm250.419 13.038c-6.221-1.46-12.388-2.975-18.61-4.436-9.25-2.272-18.501-4.652-27.806-6.708-2.002-.433-4.328.271-6.438.757-5.518 1.245-11.036 2.651-16.554 3.95-.432.108-.865.108-1.46.162v-3.462c6.167-2.327 12.496-4.491 18.609-7.033 3.084-1.298 5.735-1.136 8.818.054 14.012 5.41 28.131 10.657 42.197 15.905.487.162.92.378 1.406.541-.054.054-.108.162-.162.27zm-249.283.108c6.492-2.434 13.037-4.923 19.53-7.357 9.088-3.408 18.122-6.816 27.21-10.17.812-.325 1.84-.596 2.597-.325 7.25 2.651 14.498 5.41 21.693 8.115v3.678c-7.249-1.731-14.444-3.408-21.585-5.085a3.541 3.541 0 0 0-1.839 0c-15.472 3.733-30.944 7.52-46.416 11.252-.379.109-.757.109-1.082.163-.054-.163-.054-.217-.108-.271zm250.528 13.795c-12.875-2.38-25.75-4.76-38.572-7.195-3.029-.541-6.059-1.569-9.142-1.623-3.3-.054-6.654.649-9.954 1.244-4.761.812-9.522 1.732-14.282 2.597-.703-3.3-.649-3.354 2.326-4.328 6.384-2.055 12.767-4.111 19.205-6.059.757-.216 1.677-.27 2.38 0 15.635 4.869 31.269 9.846 46.903 14.769.379.108.758.325 1.136.487v.108zM72.22 193.238v3.571c-3.733-.65-7.411-1.299-11.036-1.948-3.678-.649-7.303-1.677-11.036-1.947-2.326-.163-4.706.595-7.033 1.027-12.442 2.327-24.83 4.653-37.273 6.925-1.515.27-3.03.595-4.598.541 4.923-1.569 9.9-3.138 14.823-4.707a5453.08 5453.08 0 0 1 31.755-10.008c.811-.27 1.84-.541 2.597-.324 7.249 2.272 14.498 4.598 21.801 6.87z"
      ></path>
  </symbol>
    </svg>