<svg width="45" height="85" viewBox="0 0 45 85" fill="none" xmlns="http://www.w3.org/2000/svg">
<path d="M6.22695 42.4527C8.59517 44.8087 10.8031 46.9884 12.9955 49.1871C23.3561 59.5721 33.7115 69.9605 44.0669 80.349C45.2338 81.5192 45.3062 83.125 44.2617 84.2019C43.1758 85.3202 41.5797 85.2597 40.368 84.0428C27.2876 70.9285 14.2072 57.8141 1.12681 44.6998C-0.377894 43.1908 -0.377894 41.8235 1.1406 40.3007C14.1779 27.2226 27.217 14.1463 40.2508 1.06482C41.0523 0.25933 41.921 -0.240216 43.0965 0.117589C44.9184 0.670718 45.5923 2.78644 44.4099 4.28162C44.1962 4.55127 43.9411 4.78807 43.698 5.0318C31.5329 17.2335 19.3694 29.4352 7.20078 41.6317C6.93535 41.8961 6.63027 42.1139 6.22695 42.4527Z" fill="#423C3A"/>
</svg>
